%TF.GenerationSoftware,KiCad,Pcbnew,(6.0.11)*%
%TF.CreationDate,2024-05-16T18:38:19+09:00*%
%TF.ProjectId,active-marker-pcb,61637469-7665-42d6-9d61-726b65722d70,rev?*%
%TF.SameCoordinates,Original*%
%TF.FileFunction,Drillmap*%
%TF.FilePolarity,Positive*%
%FSLAX45Y45*%
G04 Gerber Fmt 4.5, Leading zero omitted, Abs format (unit mm)*
G04 Created by KiCad (PCBNEW (6.0.11)) date 2024-05-16 18:38:19*
%MOMM*%
%LPD*%
G01*
G04 APERTURE LIST*
%ADD10C,0.100000*%
%ADD11C,0.200000*%
%ADD12C,0.320000*%
G04 APERTURE END LIST*
D10*
X10100000Y-8500000D02*
G75*
G03*
X10000000Y-8600000I0J-100000D01*
G01*
X14500000Y-8600000D02*
G75*
G03*
X14400000Y-8500000I-100000J0D01*
G01*
X14400000Y-12000000D02*
G75*
G03*
X14500000Y-11900000I0J100000D01*
G01*
X10000000Y-11900000D02*
G75*
G03*
X10100000Y-12000000I100000J0D01*
G01*
X14400000Y-8500000D02*
X10100000Y-8500000D01*
X14500000Y-11900000D02*
X14500000Y-8600000D01*
X10100000Y-12000000D02*
X14400000Y-12000000D01*
X10000000Y-8600000D02*
X10000000Y-11900000D01*
D11*
D12*
X10240000Y-11440000D02*
X10560000Y-11760000D01*
X10560000Y-11440000D02*
X10240000Y-11760000D01*
X10940000Y-8840000D02*
X11260000Y-9160000D01*
X11260000Y-8840000D02*
X10940000Y-9160000D01*
X13940000Y-8740000D02*
X14260000Y-9060000D01*
X14260000Y-8740000D02*
X13940000Y-9060000D01*
D11*
X10252619Y-12315476D02*
X10252619Y-12115476D01*
X10300238Y-12115476D01*
X10328810Y-12125000D01*
X10347857Y-12144048D01*
X10357381Y-12163095D01*
X10366905Y-12201190D01*
X10366905Y-12229762D01*
X10357381Y-12267857D01*
X10347857Y-12286905D01*
X10328810Y-12305952D01*
X10300238Y-12315476D01*
X10252619Y-12315476D01*
X10452619Y-12315476D02*
X10452619Y-12182143D01*
X10452619Y-12220238D02*
X10462143Y-12201190D01*
X10471667Y-12191667D01*
X10490714Y-12182143D01*
X10509762Y-12182143D01*
X10576429Y-12315476D02*
X10576429Y-12182143D01*
X10576429Y-12115476D02*
X10566905Y-12125000D01*
X10576429Y-12134524D01*
X10585952Y-12125000D01*
X10576429Y-12115476D01*
X10576429Y-12134524D01*
X10700238Y-12315476D02*
X10681190Y-12305952D01*
X10671667Y-12286905D01*
X10671667Y-12115476D01*
X10805000Y-12315476D02*
X10785952Y-12305952D01*
X10776429Y-12286905D01*
X10776429Y-12115476D01*
X11033571Y-12315476D02*
X11033571Y-12115476D01*
X11100238Y-12258333D01*
X11166905Y-12115476D01*
X11166905Y-12315476D01*
X11347857Y-12315476D02*
X11347857Y-12210714D01*
X11338333Y-12191667D01*
X11319286Y-12182143D01*
X11281190Y-12182143D01*
X11262143Y-12191667D01*
X11347857Y-12305952D02*
X11328809Y-12315476D01*
X11281190Y-12315476D01*
X11262143Y-12305952D01*
X11252619Y-12286905D01*
X11252619Y-12267857D01*
X11262143Y-12248809D01*
X11281190Y-12239286D01*
X11328809Y-12239286D01*
X11347857Y-12229762D01*
X11443095Y-12182143D02*
X11443095Y-12382143D01*
X11443095Y-12191667D02*
X11462143Y-12182143D01*
X11500238Y-12182143D01*
X11519286Y-12191667D01*
X11528809Y-12201190D01*
X11538333Y-12220238D01*
X11538333Y-12277381D01*
X11528809Y-12296428D01*
X11519286Y-12305952D01*
X11500238Y-12315476D01*
X11462143Y-12315476D01*
X11443095Y-12305952D01*
X11624048Y-12296428D02*
X11633571Y-12305952D01*
X11624048Y-12315476D01*
X11614524Y-12305952D01*
X11624048Y-12296428D01*
X11624048Y-12315476D01*
X11624048Y-12191667D02*
X11633571Y-12201190D01*
X11624048Y-12210714D01*
X11614524Y-12201190D01*
X11624048Y-12191667D01*
X11624048Y-12210714D01*
X9795000Y-12545000D02*
X9995000Y-12745000D01*
X9995000Y-12545000D02*
X9795000Y-12745000D01*
X10233571Y-12535476D02*
X10357381Y-12535476D01*
X10290714Y-12611667D01*
X10319286Y-12611667D01*
X10338333Y-12621190D01*
X10347857Y-12630714D01*
X10357381Y-12649762D01*
X10357381Y-12697381D01*
X10347857Y-12716428D01*
X10338333Y-12725952D01*
X10319286Y-12735476D01*
X10262143Y-12735476D01*
X10243095Y-12725952D01*
X10233571Y-12716428D01*
X10443095Y-12716428D02*
X10452619Y-12725952D01*
X10443095Y-12735476D01*
X10433571Y-12725952D01*
X10443095Y-12716428D01*
X10443095Y-12735476D01*
X10528810Y-12554524D02*
X10538333Y-12545000D01*
X10557381Y-12535476D01*
X10605000Y-12535476D01*
X10624048Y-12545000D01*
X10633571Y-12554524D01*
X10643095Y-12573571D01*
X10643095Y-12592619D01*
X10633571Y-12621190D01*
X10519286Y-12735476D01*
X10643095Y-12735476D01*
X10766905Y-12535476D02*
X10785952Y-12535476D01*
X10805000Y-12545000D01*
X10814524Y-12554524D01*
X10824048Y-12573571D01*
X10833571Y-12611667D01*
X10833571Y-12659286D01*
X10824048Y-12697381D01*
X10814524Y-12716428D01*
X10805000Y-12725952D01*
X10785952Y-12735476D01*
X10766905Y-12735476D01*
X10747857Y-12725952D01*
X10738333Y-12716428D01*
X10728810Y-12697381D01*
X10719286Y-12659286D01*
X10719286Y-12611667D01*
X10728810Y-12573571D01*
X10738333Y-12554524D01*
X10747857Y-12545000D01*
X10766905Y-12535476D01*
X10957381Y-12535476D02*
X10976429Y-12535476D01*
X10995476Y-12545000D01*
X11005000Y-12554524D01*
X11014524Y-12573571D01*
X11024048Y-12611667D01*
X11024048Y-12659286D01*
X11014524Y-12697381D01*
X11005000Y-12716428D01*
X10995476Y-12725952D01*
X10976429Y-12735476D01*
X10957381Y-12735476D01*
X10938333Y-12725952D01*
X10928810Y-12716428D01*
X10919286Y-12697381D01*
X10909762Y-12659286D01*
X10909762Y-12611667D01*
X10919286Y-12573571D01*
X10928810Y-12554524D01*
X10938333Y-12545000D01*
X10957381Y-12535476D01*
X11109762Y-12735476D02*
X11109762Y-12602143D01*
X11109762Y-12621190D02*
X11119286Y-12611667D01*
X11138333Y-12602143D01*
X11166905Y-12602143D01*
X11185952Y-12611667D01*
X11195476Y-12630714D01*
X11195476Y-12735476D01*
X11195476Y-12630714D02*
X11205000Y-12611667D01*
X11224048Y-12602143D01*
X11252619Y-12602143D01*
X11271667Y-12611667D01*
X11281190Y-12630714D01*
X11281190Y-12735476D01*
X11376428Y-12735476D02*
X11376428Y-12602143D01*
X11376428Y-12621190D02*
X11385952Y-12611667D01*
X11405000Y-12602143D01*
X11433571Y-12602143D01*
X11452619Y-12611667D01*
X11462143Y-12630714D01*
X11462143Y-12735476D01*
X11462143Y-12630714D02*
X11471667Y-12611667D01*
X11490714Y-12602143D01*
X11519286Y-12602143D01*
X11538333Y-12611667D01*
X11547857Y-12630714D01*
X11547857Y-12735476D01*
X11938333Y-12525952D02*
X11766905Y-12783095D01*
X12195476Y-12535476D02*
X12214524Y-12535476D01*
X12233571Y-12545000D01*
X12243095Y-12554524D01*
X12252619Y-12573571D01*
X12262143Y-12611667D01*
X12262143Y-12659286D01*
X12252619Y-12697381D01*
X12243095Y-12716428D01*
X12233571Y-12725952D01*
X12214524Y-12735476D01*
X12195476Y-12735476D01*
X12176428Y-12725952D01*
X12166905Y-12716428D01*
X12157381Y-12697381D01*
X12147857Y-12659286D01*
X12147857Y-12611667D01*
X12157381Y-12573571D01*
X12166905Y-12554524D01*
X12176428Y-12545000D01*
X12195476Y-12535476D01*
X12347857Y-12716428D02*
X12357381Y-12725952D01*
X12347857Y-12735476D01*
X12338333Y-12725952D01*
X12347857Y-12716428D01*
X12347857Y-12735476D01*
X12547857Y-12735476D02*
X12433571Y-12735476D01*
X12490714Y-12735476D02*
X12490714Y-12535476D01*
X12471667Y-12564048D01*
X12452619Y-12583095D01*
X12433571Y-12592619D01*
X12624048Y-12554524D02*
X12633571Y-12545000D01*
X12652619Y-12535476D01*
X12700238Y-12535476D01*
X12719286Y-12545000D01*
X12728809Y-12554524D01*
X12738333Y-12573571D01*
X12738333Y-12592619D01*
X12728809Y-12621190D01*
X12614524Y-12735476D01*
X12738333Y-12735476D01*
X12909762Y-12535476D02*
X12871667Y-12535476D01*
X12852619Y-12545000D01*
X12843095Y-12554524D01*
X12824048Y-12583095D01*
X12814524Y-12621190D01*
X12814524Y-12697381D01*
X12824048Y-12716428D01*
X12833571Y-12725952D01*
X12852619Y-12735476D01*
X12890714Y-12735476D01*
X12909762Y-12725952D01*
X12919286Y-12716428D01*
X12928809Y-12697381D01*
X12928809Y-12649762D01*
X12919286Y-12630714D01*
X12909762Y-12621190D01*
X12890714Y-12611667D01*
X12852619Y-12611667D01*
X12833571Y-12621190D01*
X12824048Y-12630714D01*
X12814524Y-12649762D01*
X13052619Y-12535476D02*
X13071667Y-12535476D01*
X13090714Y-12545000D01*
X13100238Y-12554524D01*
X13109762Y-12573571D01*
X13119286Y-12611667D01*
X13119286Y-12659286D01*
X13109762Y-12697381D01*
X13100238Y-12716428D01*
X13090714Y-12725952D01*
X13071667Y-12735476D01*
X13052619Y-12735476D01*
X13033571Y-12725952D01*
X13024048Y-12716428D01*
X13014524Y-12697381D01*
X13005000Y-12659286D01*
X13005000Y-12611667D01*
X13014524Y-12573571D01*
X13024048Y-12554524D01*
X13033571Y-12545000D01*
X13052619Y-12535476D01*
X13195476Y-12535476D02*
X13195476Y-12573571D01*
X13271667Y-12535476D02*
X13271667Y-12573571D01*
X13566905Y-12811667D02*
X13557381Y-12802143D01*
X13538333Y-12773571D01*
X13528809Y-12754524D01*
X13519286Y-12725952D01*
X13509762Y-12678333D01*
X13509762Y-12640238D01*
X13519286Y-12592619D01*
X13528809Y-12564048D01*
X13538333Y-12545000D01*
X13557381Y-12516428D01*
X13566905Y-12506905D01*
X13624048Y-12535476D02*
X13747857Y-12535476D01*
X13681190Y-12611667D01*
X13709762Y-12611667D01*
X13728809Y-12621190D01*
X13738333Y-12630714D01*
X13747857Y-12649762D01*
X13747857Y-12697381D01*
X13738333Y-12716428D01*
X13728809Y-12725952D01*
X13709762Y-12735476D01*
X13652619Y-12735476D01*
X13633571Y-12725952D01*
X13624048Y-12716428D01*
X13985952Y-12735476D02*
X13985952Y-12535476D01*
X14071667Y-12735476D02*
X14071667Y-12630714D01*
X14062143Y-12611667D01*
X14043095Y-12602143D01*
X14014524Y-12602143D01*
X13995476Y-12611667D01*
X13985952Y-12621190D01*
X14195476Y-12735476D02*
X14176428Y-12725952D01*
X14166905Y-12716428D01*
X14157381Y-12697381D01*
X14157381Y-12640238D01*
X14166905Y-12621190D01*
X14176428Y-12611667D01*
X14195476Y-12602143D01*
X14224048Y-12602143D01*
X14243095Y-12611667D01*
X14252619Y-12621190D01*
X14262143Y-12640238D01*
X14262143Y-12697381D01*
X14252619Y-12716428D01*
X14243095Y-12725952D01*
X14224048Y-12735476D01*
X14195476Y-12735476D01*
X14376428Y-12735476D02*
X14357381Y-12725952D01*
X14347857Y-12706905D01*
X14347857Y-12535476D01*
X14528809Y-12725952D02*
X14509762Y-12735476D01*
X14471667Y-12735476D01*
X14452619Y-12725952D01*
X14443095Y-12706905D01*
X14443095Y-12630714D01*
X14452619Y-12611667D01*
X14471667Y-12602143D01*
X14509762Y-12602143D01*
X14528809Y-12611667D01*
X14538333Y-12630714D01*
X14538333Y-12649762D01*
X14443095Y-12668809D01*
X14614524Y-12725952D02*
X14633571Y-12735476D01*
X14671667Y-12735476D01*
X14690714Y-12725952D01*
X14700238Y-12706905D01*
X14700238Y-12697381D01*
X14690714Y-12678333D01*
X14671667Y-12668809D01*
X14643095Y-12668809D01*
X14624048Y-12659286D01*
X14614524Y-12640238D01*
X14614524Y-12630714D01*
X14624048Y-12611667D01*
X14643095Y-12602143D01*
X14671667Y-12602143D01*
X14690714Y-12611667D01*
X14766905Y-12811667D02*
X14776428Y-12802143D01*
X14795476Y-12773571D01*
X14805000Y-12754524D01*
X14814524Y-12725952D01*
X14824048Y-12678333D01*
X14824048Y-12640238D01*
X14814524Y-12592619D01*
X14805000Y-12564048D01*
X14795476Y-12545000D01*
X14776428Y-12516428D01*
X14766905Y-12506905D01*
X15128809Y-12811667D02*
X15119286Y-12802143D01*
X15100238Y-12773571D01*
X15090714Y-12754524D01*
X15081190Y-12725952D01*
X15071667Y-12678333D01*
X15071667Y-12640238D01*
X15081190Y-12592619D01*
X15090714Y-12564048D01*
X15100238Y-12545000D01*
X15119286Y-12516428D01*
X15128809Y-12506905D01*
X15205000Y-12602143D02*
X15205000Y-12735476D01*
X15205000Y-12621190D02*
X15214524Y-12611667D01*
X15233571Y-12602143D01*
X15262143Y-12602143D01*
X15281190Y-12611667D01*
X15290714Y-12630714D01*
X15290714Y-12735476D01*
X15414524Y-12735476D02*
X15395476Y-12725952D01*
X15385952Y-12716428D01*
X15376428Y-12697381D01*
X15376428Y-12640238D01*
X15385952Y-12621190D01*
X15395476Y-12611667D01*
X15414524Y-12602143D01*
X15443095Y-12602143D01*
X15462143Y-12611667D01*
X15471667Y-12621190D01*
X15481190Y-12640238D01*
X15481190Y-12697381D01*
X15471667Y-12716428D01*
X15462143Y-12725952D01*
X15443095Y-12735476D01*
X15414524Y-12735476D01*
X15538333Y-12602143D02*
X15614524Y-12602143D01*
X15566905Y-12535476D02*
X15566905Y-12706905D01*
X15576428Y-12725952D01*
X15595476Y-12735476D01*
X15614524Y-12735476D01*
X15833571Y-12602143D02*
X15833571Y-12802143D01*
X15833571Y-12611667D02*
X15852619Y-12602143D01*
X15890714Y-12602143D01*
X15909762Y-12611667D01*
X15919286Y-12621190D01*
X15928809Y-12640238D01*
X15928809Y-12697381D01*
X15919286Y-12716428D01*
X15909762Y-12725952D01*
X15890714Y-12735476D01*
X15852619Y-12735476D01*
X15833571Y-12725952D01*
X16043095Y-12735476D02*
X16024048Y-12725952D01*
X16014524Y-12706905D01*
X16014524Y-12535476D01*
X16205000Y-12735476D02*
X16205000Y-12630714D01*
X16195476Y-12611667D01*
X16176428Y-12602143D01*
X16138333Y-12602143D01*
X16119286Y-12611667D01*
X16205000Y-12725952D02*
X16185952Y-12735476D01*
X16138333Y-12735476D01*
X16119286Y-12725952D01*
X16109762Y-12706905D01*
X16109762Y-12687857D01*
X16119286Y-12668809D01*
X16138333Y-12659286D01*
X16185952Y-12659286D01*
X16205000Y-12649762D01*
X16271667Y-12602143D02*
X16347857Y-12602143D01*
X16300238Y-12535476D02*
X16300238Y-12706905D01*
X16309762Y-12725952D01*
X16328809Y-12735476D01*
X16347857Y-12735476D01*
X16490714Y-12725952D02*
X16471667Y-12735476D01*
X16433571Y-12735476D01*
X16414524Y-12725952D01*
X16405000Y-12706905D01*
X16405000Y-12630714D01*
X16414524Y-12611667D01*
X16433571Y-12602143D01*
X16471667Y-12602143D01*
X16490714Y-12611667D01*
X16500238Y-12630714D01*
X16500238Y-12649762D01*
X16405000Y-12668809D01*
X16671667Y-12735476D02*
X16671667Y-12535476D01*
X16671667Y-12725952D02*
X16652619Y-12735476D01*
X16614524Y-12735476D01*
X16595476Y-12725952D01*
X16585952Y-12716428D01*
X16576428Y-12697381D01*
X16576428Y-12640238D01*
X16585952Y-12621190D01*
X16595476Y-12611667D01*
X16614524Y-12602143D01*
X16652619Y-12602143D01*
X16671667Y-12611667D01*
X16747857Y-12811667D02*
X16757381Y-12802143D01*
X16776428Y-12773571D01*
X16785952Y-12754524D01*
X16795476Y-12725952D01*
X16805000Y-12678333D01*
X16805000Y-12640238D01*
X16795476Y-12592619D01*
X16785952Y-12564048D01*
X16776428Y-12545000D01*
X16757381Y-12516428D01*
X16747857Y-12506905D01*
M02*
