%TF.GenerationSoftware,KiCad,Pcbnew,(6.0.11)*%
%TF.CreationDate,2024-05-16T18:38:15+09:00*%
%TF.ProjectId,active-marker-pcb,61637469-7665-42d6-9d61-726b65722d70,rev?*%
%TF.SameCoordinates,Original*%
%TF.FileFunction,Soldermask,Top*%
%TF.FilePolarity,Negative*%
%FSLAX46Y46*%
G04 Gerber Fmt 4.6, Leading zero omitted, Abs format (unit mm)*
G04 Created by KiCad (PCBNEW (6.0.11)) date 2024-05-16 18:38:15*
%MOMM*%
%LPD*%
G01*
G04 APERTURE LIST*
G04 Aperture macros list*
%AMRoundRect*
0 Rectangle with rounded corners*
0 $1 Rounding radius*
0 $2 $3 $4 $5 $6 $7 $8 $9 X,Y pos of 4 corners*
0 Add a 4 corners polygon primitive as box body*
4,1,4,$2,$3,$4,$5,$6,$7,$8,$9,$2,$3,0*
0 Add four circle primitives for the rounded corners*
1,1,$1+$1,$2,$3*
1,1,$1+$1,$4,$5*
1,1,$1+$1,$6,$7*
1,1,$1+$1,$8,$9*
0 Add four rect primitives between the rounded corners*
20,1,$1+$1,$2,$3,$4,$5,0*
20,1,$1+$1,$4,$5,$6,$7,0*
20,1,$1+$1,$6,$7,$8,$9,0*
20,1,$1+$1,$8,$9,$2,$3,0*%
G04 Aperture macros list end*
%ADD10C,3.200000*%
%ADD11C,1.412000*%
%ADD12RoundRect,0.102000X0.604000X0.604000X-0.604000X0.604000X-0.604000X-0.604000X0.604000X-0.604000X0*%
%ADD13RoundRect,0.102000X0.604000X-0.604000X0.604000X0.604000X-0.604000X0.604000X-0.604000X-0.604000X0*%
%ADD14RoundRect,0.102000X-0.604000X0.604000X-0.604000X-0.604000X0.604000X-0.604000X0.604000X0.604000X0*%
%ADD15R,1.500000X0.550000*%
%ADD16RoundRect,0.237500X-0.300000X-0.237500X0.300000X-0.237500X0.300000X0.237500X-0.300000X0.237500X0*%
%ADD17R,0.711200X0.406400*%
%ADD18R,0.203200X0.406400*%
%ADD19R,1.000000X1.000000*%
%ADD20O,1.000000X1.000000*%
%ADD21R,0.550000X0.300000*%
%ADD22RoundRect,0.150000X0.150000X-0.825000X0.150000X0.825000X-0.150000X0.825000X-0.150000X-0.825000X0*%
%ADD23RoundRect,0.237500X0.300000X0.237500X-0.300000X0.237500X-0.300000X-0.237500X0.300000X-0.237500X0*%
%ADD24R,1.100000X1.500000*%
%ADD25RoundRect,0.237500X0.250000X0.237500X-0.250000X0.237500X-0.250000X-0.237500X0.250000X-0.237500X0*%
%ADD26R,1.300000X1.300000*%
%ADD27C,1.300000*%
%ADD28R,1.100000X0.900000*%
%ADD29R,1.400000X0.900000*%
G04 APERTURE END LIST*
D10*
%TO.C,H3*%
X111000000Y-90000000D03*
%TD*%
%TO.C,H2*%
X141000000Y-89000000D03*
%TD*%
%TO.C,H1*%
X104000000Y-116000000D03*
%TD*%
D11*
%TO.C,J3*%
X113574000Y-114707000D03*
X115074000Y-114707000D03*
X116574000Y-114707000D03*
D12*
X118074000Y-114707000D03*
%TD*%
D11*
%TO.C,J13*%
X105345000Y-93786000D03*
X105345000Y-95286000D03*
X105345000Y-96786000D03*
D13*
X105345000Y-98286000D03*
%TD*%
D11*
%TO.C,J2*%
X105217000Y-101882000D03*
X105217000Y-103382000D03*
X105217000Y-104882000D03*
D13*
X105217000Y-106382000D03*
%TD*%
D11*
%TO.C,J7*%
X139599000Y-109946000D03*
X139599000Y-108446000D03*
X139599000Y-106946000D03*
D14*
X139599000Y-105446000D03*
%TD*%
D11*
%TO.C,J5*%
X129830000Y-114707000D03*
X131330000Y-114707000D03*
X132830000Y-114707000D03*
D12*
X134330000Y-114707000D03*
%TD*%
D11*
%TO.C,J6*%
X139599000Y-118074000D03*
X139599000Y-116574000D03*
X139599000Y-115074000D03*
D14*
X139599000Y-113574000D03*
%TD*%
D11*
%TO.C,J4*%
X121702000Y-114707000D03*
X123202000Y-114707000D03*
X124702000Y-114707000D03*
D12*
X126202000Y-114707000D03*
%TD*%
D15*
%TO.C,SW2*%
X127596000Y-107111000D03*
X127596000Y-110361000D03*
%TD*%
D16*
%TO.C,C8*%
X115977500Y-103148000D03*
X117702500Y-103148000D03*
%TD*%
D17*
%TO.C,RN3*%
X121766700Y-101014400D03*
X121766700Y-99693600D03*
D18*
X122519937Y-101014400D03*
X122519937Y-99693600D03*
X123020063Y-101014400D03*
X123020063Y-99693600D03*
D17*
X123773300Y-101014400D03*
X123773300Y-99693600D03*
%TD*%
D19*
%TO.C,J1*%
X109562000Y-96026000D03*
D20*
X110832000Y-96026000D03*
X109562000Y-97296000D03*
X110832000Y-97296000D03*
X109562000Y-98566000D03*
X110832000Y-98566000D03*
X109562000Y-99836000D03*
X110832000Y-99836000D03*
X109562000Y-101106000D03*
X110832000Y-101106000D03*
%TD*%
D21*
%TO.C,U3*%
X123137000Y-91650000D03*
X123137000Y-91000000D03*
X123137000Y-90350000D03*
X121387000Y-90350000D03*
X121387000Y-91000000D03*
X121387000Y-91650000D03*
%TD*%
D22*
%TO.C,U5*%
X113753000Y-101051000D03*
X115023000Y-101051000D03*
X116293000Y-101051000D03*
X117563000Y-101051000D03*
X117563000Y-96101000D03*
X116293000Y-96101000D03*
X115023000Y-96101000D03*
X113753000Y-96101000D03*
%TD*%
D17*
%TO.C,RN1*%
X120979300Y-94359600D03*
X120979300Y-95680400D03*
D18*
X120226063Y-94359600D03*
X120226063Y-95680400D03*
X119725937Y-94359600D03*
X119725937Y-95680400D03*
D17*
X118972700Y-94359600D03*
X118972700Y-95680400D03*
%TD*%
D15*
%TO.C,SW4*%
X123532000Y-97661000D03*
X123532000Y-94411000D03*
%TD*%
%TO.C,SW3*%
X115912000Y-107365000D03*
X115912000Y-110615000D03*
%TD*%
D23*
%TO.C,C12*%
X123632500Y-102132000D03*
X121907500Y-102132000D03*
%TD*%
D21*
%TO.C,U4*%
X122629000Y-109386000D03*
X122629000Y-108736000D03*
X122629000Y-108086000D03*
X120879000Y-108086000D03*
X120879000Y-108736000D03*
X120879000Y-109386000D03*
%TD*%
D24*
%TO.C,SW1*%
X127850000Y-103026000D03*
X130390000Y-103026000D03*
X130390000Y-94126000D03*
X127850000Y-94126000D03*
%TD*%
D25*
%TO.C,R2*%
X117752500Y-104672000D03*
X115927500Y-104672000D03*
%TD*%
D26*
%TO.C,U1*%
X140462000Y-94258000D03*
D27*
X135382000Y-101878000D03*
X135382000Y-94258000D03*
X140462000Y-101878000D03*
X137922000Y-94258000D03*
X137922000Y-101878000D03*
%TD*%
D28*
%TO.C,RV1*%
X133692000Y-109812000D03*
D29*
X132542000Y-106512000D03*
D28*
X131392000Y-109812000D03*
%TD*%
M02*
