%TF.GenerationSoftware,KiCad,Pcbnew,(6.0.11)*%
%TF.CreationDate,2024-05-16T18:38:15+09:00*%
%TF.ProjectId,active-marker-pcb,61637469-7665-42d6-9d61-726b65722d70,rev?*%
%TF.SameCoordinates,Original*%
%TF.FileFunction,Copper,L1,Top*%
%TF.FilePolarity,Positive*%
%FSLAX46Y46*%
G04 Gerber Fmt 4.6, Leading zero omitted, Abs format (unit mm)*
G04 Created by KiCad (PCBNEW (6.0.11)) date 2024-05-16 18:38:15*
%MOMM*%
%LPD*%
G01*
G04 APERTURE LIST*
G04 Aperture macros list*
%AMRoundRect*
0 Rectangle with rounded corners*
0 $1 Rounding radius*
0 $2 $3 $4 $5 $6 $7 $8 $9 X,Y pos of 4 corners*
0 Add a 4 corners polygon primitive as box body*
4,1,4,$2,$3,$4,$5,$6,$7,$8,$9,$2,$3,0*
0 Add four circle primitives for the rounded corners*
1,1,$1+$1,$2,$3*
1,1,$1+$1,$4,$5*
1,1,$1+$1,$6,$7*
1,1,$1+$1,$8,$9*
0 Add four rect primitives between the rounded corners*
20,1,$1+$1,$2,$3,$4,$5,0*
20,1,$1+$1,$4,$5,$6,$7,0*
20,1,$1+$1,$6,$7,$8,$9,0*
20,1,$1+$1,$8,$9,$2,$3,0*%
G04 Aperture macros list end*
%TA.AperFunction,ComponentPad*%
%ADD10C,1.208000*%
%TD*%
%TA.AperFunction,ComponentPad*%
%ADD11R,1.208000X1.208000*%
%TD*%
%TA.AperFunction,SMDPad,CuDef*%
%ADD12R,1.500000X0.550000*%
%TD*%
%TA.AperFunction,SMDPad,CuDef*%
%ADD13RoundRect,0.237500X-0.300000X-0.237500X0.300000X-0.237500X0.300000X0.237500X-0.300000X0.237500X0*%
%TD*%
%TA.AperFunction,SMDPad,CuDef*%
%ADD14R,0.711200X0.406400*%
%TD*%
%TA.AperFunction,SMDPad,CuDef*%
%ADD15R,0.203200X0.406400*%
%TD*%
%TA.AperFunction,ComponentPad*%
%ADD16R,1.000000X1.000000*%
%TD*%
%TA.AperFunction,ComponentPad*%
%ADD17O,1.000000X1.000000*%
%TD*%
%TA.AperFunction,SMDPad,CuDef*%
%ADD18R,0.550000X0.300000*%
%TD*%
%TA.AperFunction,SMDPad,CuDef*%
%ADD19RoundRect,0.150000X0.150000X-0.825000X0.150000X0.825000X-0.150000X0.825000X-0.150000X-0.825000X0*%
%TD*%
%TA.AperFunction,SMDPad,CuDef*%
%ADD20RoundRect,0.237500X0.300000X0.237500X-0.300000X0.237500X-0.300000X-0.237500X0.300000X-0.237500X0*%
%TD*%
%TA.AperFunction,SMDPad,CuDef*%
%ADD21R,1.100000X1.500000*%
%TD*%
%TA.AperFunction,SMDPad,CuDef*%
%ADD22RoundRect,0.237500X0.250000X0.237500X-0.250000X0.237500X-0.250000X-0.237500X0.250000X-0.237500X0*%
%TD*%
%TA.AperFunction,ComponentPad*%
%ADD23R,1.300000X1.300000*%
%TD*%
%TA.AperFunction,ComponentPad*%
%ADD24C,1.300000*%
%TD*%
%TA.AperFunction,SMDPad,CuDef*%
%ADD25R,1.100000X0.900000*%
%TD*%
%TA.AperFunction,SMDPad,CuDef*%
%ADD26R,1.400000X0.900000*%
%TD*%
%TA.AperFunction,ViaPad*%
%ADD27C,0.800000*%
%TD*%
%TA.AperFunction,Conductor*%
%ADD28C,0.200000*%
%TD*%
%TA.AperFunction,Conductor*%
%ADD29C,0.250000*%
%TD*%
%TA.AperFunction,Conductor*%
%ADD30C,0.300000*%
%TD*%
%TA.AperFunction,Conductor*%
%ADD31C,0.500000*%
%TD*%
G04 APERTURE END LIST*
D10*
%TO.P,J3,1,Pin_1*%
%TO.N,/SPI_MOSI*%
X113574000Y-114707000D03*
%TO.P,J3,2,Pin_2*%
%TO.N,/D12*%
X115074000Y-114707000D03*
%TO.P,J3,3,Pin_3*%
%TO.N,GND*%
X116574000Y-114707000D03*
D11*
%TO.P,J3,4,Pin_4*%
%TO.N,+5V*%
X118074000Y-114707000D03*
%TD*%
D10*
%TO.P,J13,1,Pin_1*%
%TO.N,/CAN-*%
X105345000Y-93786000D03*
%TO.P,J13,2,Pin_2*%
%TO.N,/CAN+*%
X105345000Y-95286000D03*
%TO.P,J13,3,Pin_3*%
%TO.N,GND*%
X105345000Y-96786000D03*
D11*
%TO.P,J13,4,Pin_4*%
%TO.N,+5V*%
X105345000Y-98286000D03*
%TD*%
D10*
%TO.P,J2,1,Pin_1*%
%TO.N,/UART_RX*%
X105217000Y-101882000D03*
%TO.P,J2,2,Pin_2*%
%TO.N,/UART_TX*%
X105217000Y-103382000D03*
%TO.P,J2,3,Pin_3*%
%TO.N,GND*%
X105217000Y-104882000D03*
D11*
%TO.P,J2,4,Pin_4*%
%TO.N,+5V*%
X105217000Y-106382000D03*
%TD*%
D10*
%TO.P,J7,1,Pin_1*%
%TO.N,/D45*%
X139599000Y-109946000D03*
%TO.P,J7,2,Pin_2*%
%TO.N,/D56*%
X139599000Y-108446000D03*
%TO.P,J7,3,Pin_3*%
%TO.N,GND*%
X139599000Y-106946000D03*
D11*
%TO.P,J7,4,Pin_4*%
%TO.N,+5V*%
X139599000Y-105446000D03*
%TD*%
D10*
%TO.P,J5,1,Pin_1*%
%TO.N,/D23*%
X129830000Y-114707000D03*
%TO.P,J5,2,Pin_2*%
%TO.N,/D34*%
X131330000Y-114707000D03*
%TO.P,J5,3,Pin_3*%
%TO.N,GND*%
X132830000Y-114707000D03*
D11*
%TO.P,J5,4,Pin_4*%
%TO.N,+5V*%
X134330000Y-114707000D03*
%TD*%
D10*
%TO.P,J6,1,Pin_1*%
%TO.N,/D34*%
X139599000Y-118074000D03*
%TO.P,J6,2,Pin_2*%
%TO.N,/D45*%
X139599000Y-116574000D03*
%TO.P,J6,3,Pin_3*%
%TO.N,GND*%
X139599000Y-115074000D03*
D11*
%TO.P,J6,4,Pin_4*%
%TO.N,+5V*%
X139599000Y-113574000D03*
%TD*%
D10*
%TO.P,J4,1,Pin_1*%
%TO.N,/D12*%
X121702000Y-114707000D03*
%TO.P,J4,2,Pin_2*%
%TO.N,/D23*%
X123202000Y-114707000D03*
%TO.P,J4,3,Pin_3*%
%TO.N,GND*%
X124702000Y-114707000D03*
D11*
%TO.P,J4,4,Pin_4*%
%TO.N,+5V*%
X126202000Y-114707000D03*
%TD*%
D12*
%TO.P,SW2,1,1*%
%TO.N,/USER_BUTTON1*%
X127596000Y-107111000D03*
%TO.P,SW2,2,2*%
%TO.N,GND*%
X127596000Y-110361000D03*
%TD*%
D13*
%TO.P,C8,1*%
%TO.N,+5V*%
X115977500Y-103148000D03*
%TO.P,C8,2*%
%TO.N,GND*%
X117702500Y-103148000D03*
%TD*%
D14*
%TO.P,RN3,1,R1.1*%
%TO.N,+3V3*%
X121766700Y-101014400D03*
%TO.P,RN3,2,R1.2*%
%TO.N,/USER_SELECT2*%
X121766700Y-99693600D03*
D15*
%TO.P,RN3,3,R2.1*%
%TO.N,+3V3*%
X122519937Y-101014400D03*
%TO.P,RN3,4,R2.2*%
%TO.N,/I2C_SCL*%
X122519937Y-99693600D03*
%TO.P,RN3,5,R3.1*%
%TO.N,+3V3*%
X123020063Y-101014400D03*
%TO.P,RN3,6,R3.2*%
%TO.N,/I2C_SDA*%
X123020063Y-99693600D03*
D14*
%TO.P,RN3,7,R4.1*%
%TO.N,+3V3*%
X123773300Y-101014400D03*
%TO.P,RN3,8,R4.2*%
%TO.N,/USER_SELECT1*%
X123773300Y-99693600D03*
%TD*%
D16*
%TO.P,J1,1,Pin_1*%
%TO.N,+3V3*%
X109562000Y-96026000D03*
D17*
%TO.P,J1,2,Pin_2*%
%TO.N,/SWDIO*%
X110832000Y-96026000D03*
%TO.P,J1,3,Pin_3*%
%TO.N,GND*%
X109562000Y-97296000D03*
%TO.P,J1,4,Pin_4*%
%TO.N,/SWCLK*%
X110832000Y-97296000D03*
%TO.P,J1,5,Pin_5*%
%TO.N,GND*%
X109562000Y-98566000D03*
%TO.P,J1,6,Pin_6*%
%TO.N,/SWO*%
X110832000Y-98566000D03*
%TO.P,J1,7,Pin_7*%
%TO.N,/NC1*%
X109562000Y-99836000D03*
%TO.P,J1,8,Pin_8*%
%TO.N,/NC2*%
X110832000Y-99836000D03*
%TO.P,J1,9,Pin_9*%
%TO.N,GND*%
X109562000Y-101106000D03*
%TO.P,J1,10,Pin_10*%
%TO.N,/~{NRST}*%
X110832000Y-101106000D03*
%TD*%
D18*
%TO.P,U3,1,GND*%
%TO.N,GND*%
X123137000Y-91650000D03*
%TO.P,U3,2,SDA*%
%TO.N,/I2C_SDA*%
X123137000Y-91000000D03*
%TO.P,U3,3,INT*%
%TO.N,unconnected-(U3-Pad3)*%
X123137000Y-90350000D03*
%TO.P,U3,4,ADD*%
%TO.N,+3V3*%
X121387000Y-90350000D03*
%TO.P,U3,5,SCL*%
%TO.N,/I2C_SCL*%
X121387000Y-91000000D03*
%TO.P,U3,6,VDD*%
%TO.N,+3V3*%
X121387000Y-91650000D03*
%TD*%
D19*
%TO.P,U5,1,TXD*%
%TO.N,/CAN_TX*%
X113753000Y-101051000D03*
%TO.P,U5,2,VSS*%
%TO.N,GND*%
X115023000Y-101051000D03*
%TO.P,U5,3,VDD*%
%TO.N,+5V*%
X116293000Y-101051000D03*
%TO.P,U5,4,RXD*%
%TO.N,/CAN_RX*%
X117563000Y-101051000D03*
%TO.P,U5,5,Vref*%
%TO.N,Net-(C5-Pad1)*%
X117563000Y-96101000D03*
%TO.P,U5,6,CANL*%
%TO.N,/CAN-*%
X116293000Y-96101000D03*
%TO.P,U5,7,CANH*%
%TO.N,/CAN+*%
X115023000Y-96101000D03*
%TO.P,U5,8,Rs*%
%TO.N,GND*%
X113753000Y-96101000D03*
%TD*%
D14*
%TO.P,RN1,1,R1.1*%
%TO.N,+3V3*%
X120979300Y-94359600D03*
%TO.P,RN1,2,R1.2*%
%TO.N,/ID2*%
X120979300Y-95680400D03*
D15*
%TO.P,RN1,3,R2.1*%
%TO.N,+3V3*%
X120226063Y-94359600D03*
%TO.P,RN1,4,R2.2*%
%TO.N,/ID8*%
X120226063Y-95680400D03*
%TO.P,RN1,5,R3.1*%
%TO.N,+3V3*%
X119725937Y-94359600D03*
%TO.P,RN1,6,R3.2*%
%TO.N,/ID1*%
X119725937Y-95680400D03*
D14*
%TO.P,RN1,7,R4.1*%
%TO.N,+3V3*%
X118972700Y-94359600D03*
%TO.P,RN1,8,R4.2*%
%TO.N,/ID4*%
X118972700Y-95680400D03*
%TD*%
D12*
%TO.P,SW4,1,1*%
%TO.N,/~{NRST}*%
X123532000Y-97661000D03*
%TO.P,SW4,2,2*%
%TO.N,GND*%
X123532000Y-94411000D03*
%TD*%
%TO.P,SW3,1,1*%
%TO.N,/USER_BUTTON2*%
X115912000Y-107365000D03*
%TO.P,SW3,2,2*%
%TO.N,GND*%
X115912000Y-110615000D03*
%TD*%
D20*
%TO.P,C12,1*%
%TO.N,+3V3*%
X123632500Y-102132000D03*
%TO.P,C12,2*%
%TO.N,GND*%
X121907500Y-102132000D03*
%TD*%
D18*
%TO.P,U4,1,GND*%
%TO.N,GND*%
X122629000Y-109386000D03*
%TO.P,U4,2,SDA*%
%TO.N,/I2C_SDA*%
X122629000Y-108736000D03*
%TO.P,U4,3,INT*%
%TO.N,unconnected-(U4-Pad3)*%
X122629000Y-108086000D03*
%TO.P,U4,4,ADD*%
%TO.N,GND*%
X120879000Y-108086000D03*
%TO.P,U4,5,SCL*%
%TO.N,/I2C_SCL*%
X120879000Y-108736000D03*
%TO.P,U4,6,VDD*%
%TO.N,+3V3*%
X120879000Y-109386000D03*
%TD*%
D21*
%TO.P,SW1,1*%
%TO.N,/USER_SELECT1*%
X127850000Y-103026000D03*
%TO.P,SW1,2*%
%TO.N,/USER_SELECT2*%
X130390000Y-103026000D03*
%TO.P,SW1,3*%
%TO.N,GND*%
X130390000Y-94126000D03*
%TO.P,SW1,4*%
X127850000Y-94126000D03*
%TD*%
D22*
%TO.P,R2,1*%
%TO.N,Net-(D2-Pad1)*%
X117752500Y-104672000D03*
%TO.P,R2,2*%
%TO.N,GND*%
X115927500Y-104672000D03*
%TD*%
D23*
%TO.P,U1,1,1*%
%TO.N,/ID1*%
X140462000Y-94258000D03*
D24*
%TO.P,U1,2,2*%
%TO.N,/ID2*%
X135382000Y-101878000D03*
%TO.P,U1,4,4*%
%TO.N,/ID4*%
X135382000Y-94258000D03*
%TO.P,U1,8,8*%
%TO.N,/ID8*%
X140462000Y-101878000D03*
%TO.P,U1,C1,C1*%
%TO.N,GND*%
X137922000Y-94258000D03*
%TO.P,U1,C2,C2*%
X137922000Y-101878000D03*
%TD*%
D25*
%TO.P,RV1,1,1*%
%TO.N,+3V3*%
X133692000Y-109812000D03*
D26*
%TO.P,RV1,2,2*%
%TO.N,/USER_VR*%
X132542000Y-106512000D03*
D25*
%TO.P,RV1,3,3*%
%TO.N,GND*%
X131392000Y-109812000D03*
%TD*%
D27*
%TO.N,GND*%
X127000000Y-89535000D03*
X130810000Y-89535000D03*
X115570000Y-89535000D03*
X127635000Y-93980000D03*
X111125000Y-106045000D03*
X101333500Y-104966000D03*
X101058500Y-103376000D03*
X136525000Y-104140000D03*
X127000000Y-104775000D03*
X118745000Y-111760000D03*
X112395000Y-112395000D03*
X108585000Y-109855000D03*
X131445000Y-109855000D03*
X127635000Y-110490000D03*
X129540000Y-105410000D03*
X139700000Y-97790000D03*
X142240000Y-107950000D03*
X142240000Y-118110000D03*
X132080000Y-118110000D03*
X124460000Y-118110000D03*
X115570000Y-118110000D03*
X109220000Y-116840000D03*
X101600000Y-109220000D03*
X123190000Y-110490000D03*
X131572000Y-97028000D03*
X117094000Y-108204000D03*
X122936000Y-105918000D03*
X114300000Y-106172000D03*
X101346000Y-96520000D03*
X120904000Y-107950000D03*
X118872000Y-104394000D03*
X113284000Y-94996000D03*
X134112000Y-98044000D03*
X115570000Y-105918000D03*
X115316000Y-111252000D03*
X122682000Y-107188000D03*
X106680000Y-107188000D03*
X114046000Y-95504000D03*
X122936000Y-91948000D03*
X102870000Y-98044000D03*
X108204000Y-107188000D03*
X130556000Y-94234000D03*
X128524000Y-99568000D03*
%TO.N,+3V3*%
X123786000Y-101370000D03*
X120992000Y-101116000D03*
X113880000Y-98068000D03*
X133692000Y-109812000D03*
X116774500Y-92480000D03*
X120170926Y-109300547D03*
%TO.N,Net-(C5-Pad1)*%
X116928000Y-94004000D03*
%TO.N,/SWCLK*%
X112093622Y-96298378D03*
%TO.N,/~{NRST}*%
X124579500Y-98068000D03*
%TO.N,/UART_RX*%
X112610000Y-101624000D03*
%TO.N,/UART_TX*%
X111086000Y-102960972D03*
%TO.N,/SPI_MOSI*%
X120899701Y-105913701D03*
%TO.N,Net-(D2-Pad1)*%
X117182000Y-106196000D03*
%TO.N,/CAN+*%
X107188000Y-95504000D03*
%TO.N,/CAN-*%
X107188000Y-93679000D03*
%TO.N,/USER_BUTTON2*%
X115912000Y-107365000D03*
%TO.N,/ID4*%
X118706000Y-95782000D03*
%TO.N,/ID1*%
X119722000Y-93496000D03*
X118960000Y-97851500D03*
%TO.N,/ID8*%
X119820778Y-98359500D03*
%TO.N,/ID2*%
X120682815Y-97504815D03*
%TO.N,/USER_BUTTON1*%
X124802000Y-107823500D03*
%TO.N,/USER_SELECT2*%
X130390000Y-102518000D03*
X119558033Y-102928983D03*
%TO.N,/USER_SELECT1*%
X127850000Y-102518000D03*
X123773300Y-99693600D03*
%TO.N,/I2C_SDA*%
X124040000Y-92480000D03*
X123024000Y-98576000D03*
%TO.N,/I2C_SCL*%
X122036628Y-98731236D03*
X122008000Y-92988000D03*
%TO.N,/USER_VR*%
X132542000Y-106512000D03*
%TO.N,/CAN_TX*%
X116166000Y-99084000D03*
%TO.N,/CAN_RX*%
X118960000Y-99846000D03*
%TD*%
D28*
%TO.N,/ID8*%
X132864000Y-102828000D02*
X139512000Y-102828000D01*
X131854000Y-101818000D02*
X132864000Y-102828000D01*
X125758000Y-101818000D02*
X131854000Y-101818000D01*
X125564000Y-101624000D02*
X125758000Y-101818000D01*
X122089519Y-97052000D02*
X125310000Y-97052000D01*
X121656560Y-97484959D02*
X122089519Y-97052000D01*
X125564000Y-97306000D02*
X125564000Y-101624000D01*
X139512000Y-102828000D02*
X140462000Y-101878000D01*
X121656560Y-97520314D02*
X121656560Y-97484959D01*
X120600874Y-98576000D02*
X121656560Y-97520314D01*
X120037278Y-98576000D02*
X120600874Y-98576000D01*
X125310000Y-97052000D02*
X125564000Y-97306000D01*
X119820778Y-98359500D02*
X120037278Y-98576000D01*
D29*
%TO.N,/ID2*%
X120396000Y-96694815D02*
X120979300Y-96111515D01*
X120979300Y-96111515D02*
X120979300Y-95680400D01*
X120682815Y-97504815D02*
X120396000Y-97218000D01*
X120396000Y-97218000D02*
X120396000Y-96694815D01*
D28*
%TO.N,/ID1*%
X119725937Y-96085963D02*
X119725937Y-95680400D01*
X118960000Y-96851900D02*
X119725937Y-96085963D01*
X118960000Y-97851500D02*
X118960000Y-96851900D01*
%TO.N,/I2C_SCL*%
X122008000Y-91246000D02*
X121762000Y-91000000D01*
X121762000Y-91000000D02*
X121387000Y-91000000D01*
X122008000Y-92988000D02*
X122008000Y-91246000D01*
D30*
%TO.N,/I2C_SDA*%
X123612000Y-91000000D02*
X123137000Y-91000000D01*
X124040000Y-91428000D02*
X123612000Y-91000000D01*
X124040000Y-92480000D02*
X124040000Y-91428000D01*
%TO.N,+3V3*%
X120342000Y-90878000D02*
X120342000Y-90814000D01*
X121114000Y-91650000D02*
X120342000Y-90878000D01*
X121387000Y-91650000D02*
X121114000Y-91650000D01*
D29*
X118440500Y-90814000D02*
X116774500Y-92480000D01*
X120342000Y-90814000D02*
X118440500Y-90814000D01*
X121387000Y-90350000D02*
X120806000Y-90350000D01*
X120806000Y-90350000D02*
X120342000Y-90814000D01*
D30*
%TO.N,/D12*%
X120748000Y-115661000D02*
X121702000Y-114707000D01*
X116028000Y-115661000D02*
X120748000Y-115661000D01*
X115074000Y-114707000D02*
X116028000Y-115661000D01*
%TO.N,/D23*%
X128876000Y-115661000D02*
X129830000Y-114707000D01*
X124156000Y-115661000D02*
X128876000Y-115661000D01*
X123202000Y-114707000D02*
X124156000Y-115661000D01*
%TO.N,/D45*%
X140553000Y-110900000D02*
X139599000Y-109946000D01*
X140553000Y-115620000D02*
X140553000Y-110900000D01*
X139599000Y-116574000D02*
X140553000Y-115620000D01*
%TO.N,/D34*%
X134697000Y-118074000D02*
X139599000Y-118074000D01*
X131330000Y-114707000D02*
X134697000Y-118074000D01*
D29*
%TO.N,/SPI_MOSI*%
X113574000Y-114628000D02*
X113574000Y-114707000D01*
X118162000Y-110040000D02*
X113574000Y-114628000D01*
X118162000Y-108396695D02*
X118162000Y-110040000D01*
X120644994Y-105913701D02*
X118162000Y-108396695D01*
X120899701Y-105913701D02*
X120644994Y-105913701D01*
D31*
%TO.N,+5V*%
X103632000Y-104797000D02*
X103632000Y-99999000D01*
X105217000Y-106382000D02*
X103632000Y-104797000D01*
X103632000Y-99999000D02*
X105345000Y-98286000D01*
D28*
%TO.N,/CAN+*%
X106970000Y-95286000D02*
X107188000Y-95504000D01*
X105345000Y-95286000D02*
X106970000Y-95286000D01*
%TO.N,/CAN-*%
X107081000Y-93786000D02*
X107188000Y-93679000D01*
X105345000Y-93786000D02*
X107081000Y-93786000D01*
X115883001Y-94926801D02*
X115883001Y-95691001D01*
X114735200Y-93779000D02*
X115883001Y-94926801D01*
X115883001Y-95691001D02*
X116293000Y-96101000D01*
X107288000Y-93779000D02*
X114735200Y-93779000D01*
X107188000Y-93679000D02*
X107288000Y-93779000D01*
%TO.N,/CAN+*%
X115432999Y-95113199D02*
X115432999Y-95691001D01*
X107696000Y-95504000D02*
X108971000Y-94229000D01*
X108971000Y-94229000D02*
X114548800Y-94229000D01*
X114548800Y-94229000D02*
X115432999Y-95113199D01*
X107188000Y-95504000D02*
X107696000Y-95504000D01*
X115432999Y-95691001D02*
X115023000Y-96101000D01*
D31*
%TO.N,+5V*%
X106493918Y-108204000D02*
X105217000Y-106927082D01*
X110921500Y-108204000D02*
X106493918Y-108204000D01*
X115977500Y-103148000D02*
X110921500Y-108204000D01*
X105217000Y-106927082D02*
X105217000Y-106382000D01*
D29*
%TO.N,/UART_RX*%
X112356000Y-101624000D02*
X112610000Y-101624000D01*
X105467000Y-102132000D02*
X111848000Y-102132000D01*
X111848000Y-102132000D02*
X112356000Y-101624000D01*
X105217000Y-101882000D02*
X105467000Y-102132000D01*
D30*
%TO.N,/UART_TX*%
X105638028Y-102960972D02*
X111086000Y-102960972D01*
X105217000Y-103382000D02*
X105638028Y-102960972D01*
D29*
%TO.N,+5V*%
X115758500Y-101585500D02*
X116293000Y-101051000D01*
X115758500Y-103148000D02*
X115758500Y-101585500D01*
%TO.N,GND*%
X115808500Y-104672000D02*
X115808500Y-104822500D01*
D30*
%TO.N,+3V3*%
X111892661Y-95020000D02*
X112886331Y-96013670D01*
X110568000Y-95020000D02*
X111892661Y-95020000D01*
D31*
X123786000Y-101370000D02*
X123786000Y-101027100D01*
D30*
X109562000Y-96026000D02*
X110568000Y-95020000D01*
X123632500Y-101523500D02*
X123786000Y-101370000D01*
D28*
X120256379Y-109386000D02*
X120879000Y-109386000D01*
D30*
X112886331Y-96013670D02*
X112886331Y-97074331D01*
D31*
X123786000Y-101027100D02*
X123773300Y-101014400D01*
D29*
X123773300Y-101014400D02*
X121766700Y-101014400D01*
D30*
X116774500Y-92480000D02*
X118654100Y-94359600D01*
X123632500Y-102132000D02*
X123632500Y-101523500D01*
X120992000Y-101116000D02*
X121665100Y-101116000D01*
D29*
X118972700Y-94359600D02*
X120636400Y-94359600D01*
D30*
X121665100Y-101116000D02*
X121766700Y-101014400D01*
X112886331Y-97074331D02*
X113880000Y-98068000D01*
X118654100Y-94359600D02*
X118972700Y-94359600D01*
D28*
X120170926Y-109300547D02*
X120256379Y-109386000D01*
D29*
%TO.N,Net-(C5-Pad1)*%
X117563000Y-94639000D02*
X116928000Y-94004000D01*
X117563000Y-96101000D02*
X117563000Y-94639000D01*
D28*
%TO.N,/SWCLK*%
X111096000Y-97296000D02*
X110832000Y-97296000D01*
X112093622Y-96298378D02*
X111096000Y-97296000D01*
%TO.N,/~{NRST}*%
X122081560Y-97661000D02*
X120658560Y-99084000D01*
D29*
X117191305Y-99084000D02*
X120658560Y-99084000D01*
X122081560Y-97661000D02*
X123532000Y-97661000D01*
X113067249Y-100090000D02*
X114798249Y-98359000D01*
X110832000Y-101106000D02*
X111848000Y-100090000D01*
X116466305Y-98359000D02*
X117191305Y-99084000D01*
D30*
X123939000Y-98068000D02*
X123532000Y-97661000D01*
D29*
X114798249Y-98359000D02*
X116466305Y-98359000D01*
X111848000Y-100090000D02*
X113067249Y-100090000D01*
D30*
X124579500Y-98068000D02*
X123939000Y-98068000D01*
D29*
%TO.N,Net-(D2-Pad1)*%
X117182000Y-105242500D02*
X117752500Y-104672000D01*
X117182000Y-106196000D02*
X117182000Y-105242500D01*
D28*
%TO.N,/ID4*%
X134464000Y-95176000D02*
X135382000Y-94258000D01*
X122795200Y-95176000D02*
X134464000Y-95176000D01*
D29*
X118706000Y-95782000D02*
X119125100Y-95782000D01*
D28*
X122482000Y-94862800D02*
X122795200Y-95176000D01*
X118706000Y-95782000D02*
X119625200Y-94862800D01*
X119625200Y-94862800D02*
X122482000Y-94862800D01*
%TO.N,/ID1*%
X126388000Y-93688000D02*
X127000000Y-93076000D01*
X119722000Y-93496000D02*
X120230000Y-92988000D01*
X120230000Y-92988000D02*
X121018050Y-92988000D01*
X127000000Y-93076000D02*
X139280000Y-93076000D01*
X121018050Y-92988000D02*
X121718050Y-93688000D01*
X121718050Y-93688000D02*
X126388000Y-93688000D01*
X139280000Y-93076000D02*
X140462000Y-94258000D01*
%TO.N,/ID8*%
X120226063Y-96263712D02*
X120226063Y-95680400D01*
X119660000Y-98198722D02*
X119660000Y-96829775D01*
X119820778Y-98359500D02*
X119660000Y-98198722D01*
X119660000Y-96829775D02*
X120226063Y-96263712D01*
%TO.N,/ID2*%
X120682815Y-97504815D02*
X121643630Y-96544000D01*
X126072000Y-100665685D02*
X126752315Y-101346000D01*
X126072000Y-97052000D02*
X126072000Y-100665685D01*
X126752315Y-101346000D02*
X134850000Y-101346000D01*
X121643630Y-96544000D02*
X125564000Y-96544000D01*
X125564000Y-96544000D02*
X126072000Y-97052000D01*
X134850000Y-101346000D02*
X135382000Y-101878000D01*
D29*
%TO.N,/USER_BUTTON1*%
X125514500Y-107111000D02*
X124802000Y-107823500D01*
X127088000Y-107111000D02*
X125514500Y-107111000D01*
%TO.N,/USER_SELECT2*%
X119664000Y-100857198D02*
X119664000Y-100412000D01*
X120382400Y-99693600D02*
X121766700Y-99693600D01*
X119558033Y-102928983D02*
X118960000Y-102330950D01*
X119664000Y-100412000D02*
X120382400Y-99693600D01*
X118960000Y-101561198D02*
X119664000Y-100857198D01*
X118960000Y-102330950D02*
X118960000Y-101561198D01*
%TO.N,/I2C_SDA*%
X123698000Y-107950000D02*
X123698000Y-103399495D01*
X124511000Y-102586495D02*
X124511000Y-100571000D01*
X124511000Y-100571000D02*
X124358600Y-100418600D01*
X123698000Y-103399495D02*
X124511000Y-102586495D01*
X123024000Y-98576000D02*
X123024000Y-99689663D01*
X123020063Y-100096063D02*
X123020063Y-99693600D01*
X123024000Y-99689663D02*
X123020063Y-99693600D01*
X122912000Y-108736000D02*
X123698000Y-107950000D01*
X123342600Y-100418600D02*
X123020063Y-100096063D01*
X124358600Y-100418600D02*
X123342600Y-100418600D01*
X122629000Y-108736000D02*
X122912000Y-108736000D01*
%TO.N,/I2C_SCL*%
X122036628Y-98938223D02*
X122516000Y-99417595D01*
X120860895Y-100221800D02*
X122436174Y-100221800D01*
X122519937Y-100138037D02*
X122519937Y-99693600D01*
X120114000Y-101826000D02*
X120114000Y-100968695D01*
X120114000Y-100968695D02*
X120860895Y-100221800D01*
X121666000Y-103378000D02*
X120114000Y-101826000D01*
X121666000Y-108374000D02*
X121666000Y-103378000D01*
X121304000Y-108736000D02*
X121666000Y-108374000D01*
X120879000Y-108736000D02*
X121304000Y-108736000D01*
X122516000Y-99417595D02*
X122516000Y-99592000D01*
X122436174Y-100221800D02*
X122519937Y-100138037D01*
X122036628Y-98731236D02*
X122036628Y-98938223D01*
%TO.N,/CAN_TX*%
X115343249Y-99084000D02*
X116166000Y-99084000D01*
X113753000Y-101051000D02*
X113753000Y-100674249D01*
X113753000Y-100674249D02*
X115343249Y-99084000D01*
%TO.N,/CAN_RX*%
X118771000Y-101051000D02*
X117563000Y-101051000D01*
X119214000Y-100100000D02*
X119214000Y-100608000D01*
X118960000Y-99846000D02*
X119214000Y-100100000D01*
X119214000Y-100608000D02*
X118771000Y-101051000D01*
%TD*%
%TA.AperFunction,Conductor*%
%TO.N,GND*%
G36*
X143970018Y-85510000D02*
G01*
X143984852Y-85512310D01*
X143984855Y-85512310D01*
X143993724Y-85513691D01*
X144002626Y-85512527D01*
X144002750Y-85512511D01*
X144033192Y-85512240D01*
X144040621Y-85513077D01*
X144095264Y-85519234D01*
X144122771Y-85525513D01*
X144199853Y-85552485D01*
X144225274Y-85564727D01*
X144294426Y-85608178D01*
X144316485Y-85625770D01*
X144374230Y-85683515D01*
X144391822Y-85705574D01*
X144435273Y-85774726D01*
X144447515Y-85800147D01*
X144474487Y-85877228D01*
X144480766Y-85904736D01*
X144487018Y-85960226D01*
X144486923Y-85975868D01*
X144487800Y-85975879D01*
X144487690Y-85984851D01*
X144486309Y-85993724D01*
X144487473Y-86002626D01*
X144487473Y-86002628D01*
X144490436Y-86025283D01*
X144491500Y-86041621D01*
X144491500Y-118950633D01*
X144490000Y-118970018D01*
X144486309Y-118993724D01*
X144487473Y-119002626D01*
X144487489Y-119002750D01*
X144487760Y-119033192D01*
X144485566Y-119052662D01*
X144480766Y-119095264D01*
X144474487Y-119122771D01*
X144447515Y-119199853D01*
X144435273Y-119225274D01*
X144391822Y-119294426D01*
X144374230Y-119316485D01*
X144316485Y-119374230D01*
X144294426Y-119391822D01*
X144225274Y-119435273D01*
X144199853Y-119447515D01*
X144122772Y-119474487D01*
X144095264Y-119480766D01*
X144039774Y-119487018D01*
X144024132Y-119486923D01*
X144024121Y-119487800D01*
X144015149Y-119487690D01*
X144006276Y-119486309D01*
X143997374Y-119487473D01*
X143997372Y-119487473D01*
X143986385Y-119488910D01*
X143974714Y-119490436D01*
X143958379Y-119491500D01*
X101049367Y-119491500D01*
X101029982Y-119490000D01*
X101015148Y-119487690D01*
X101015145Y-119487690D01*
X101006276Y-119486309D01*
X100997374Y-119487473D01*
X100997250Y-119487489D01*
X100966808Y-119487760D01*
X100946130Y-119485430D01*
X100904736Y-119480766D01*
X100877229Y-119474487D01*
X100800147Y-119447515D01*
X100774726Y-119435273D01*
X100705574Y-119391822D01*
X100683515Y-119374230D01*
X100625770Y-119316485D01*
X100608178Y-119294426D01*
X100564727Y-119225274D01*
X100552485Y-119199853D01*
X100525513Y-119122772D01*
X100519234Y-119095266D01*
X100514795Y-119055872D01*
X100513170Y-119041447D01*
X100512888Y-119016640D01*
X100513576Y-119012552D01*
X100513729Y-119000000D01*
X100509773Y-118972376D01*
X100508500Y-118954514D01*
X100508500Y-116132703D01*
X101890743Y-116132703D01*
X101891302Y-116136947D01*
X101891302Y-116136951D01*
X101898621Y-116192544D01*
X101928268Y-116417734D01*
X102004129Y-116695036D01*
X102005813Y-116698984D01*
X102111581Y-116946951D01*
X102116923Y-116959476D01*
X102264561Y-117206161D01*
X102444313Y-117430528D01*
X102652851Y-117628423D01*
X102886317Y-117796186D01*
X102890112Y-117798195D01*
X102890113Y-117798196D01*
X102911869Y-117809715D01*
X103140392Y-117930712D01*
X103410373Y-118029511D01*
X103691264Y-118090755D01*
X103719841Y-118093004D01*
X103914282Y-118108307D01*
X103914291Y-118108307D01*
X103916739Y-118108500D01*
X104072271Y-118108500D01*
X104074407Y-118108354D01*
X104074418Y-118108354D01*
X104282548Y-118094165D01*
X104282554Y-118094164D01*
X104286825Y-118093873D01*
X104291020Y-118093004D01*
X104291022Y-118093004D01*
X104427583Y-118064724D01*
X104568342Y-118035574D01*
X104839343Y-117939607D01*
X105094812Y-117807750D01*
X105098313Y-117805289D01*
X105098317Y-117805287D01*
X105293051Y-117668425D01*
X105330023Y-117642441D01*
X105488246Y-117495411D01*
X105537479Y-117449661D01*
X105537481Y-117449658D01*
X105540622Y-117446740D01*
X105722713Y-117224268D01*
X105872927Y-116979142D01*
X105936280Y-116834821D01*
X105986757Y-116719830D01*
X105988483Y-116715898D01*
X106067244Y-116439406D01*
X106107751Y-116154784D01*
X106107804Y-116144841D01*
X106109235Y-115871583D01*
X106109235Y-115871576D01*
X106109257Y-115867297D01*
X106103361Y-115822508D01*
X106090875Y-115727673D01*
X106071732Y-115582266D01*
X106066619Y-115563574D01*
X106017532Y-115384145D01*
X105995871Y-115304964D01*
X105883077Y-115040524D01*
X105784619Y-114876012D01*
X105737643Y-114797521D01*
X105737640Y-114797517D01*
X105735439Y-114793839D01*
X105555687Y-114569472D01*
X105347149Y-114371577D01*
X105113683Y-114203814D01*
X105091843Y-114192250D01*
X105068654Y-114179972D01*
X104859608Y-114069288D01*
X104589627Y-113970489D01*
X104308736Y-113909245D01*
X104277685Y-113906801D01*
X104085718Y-113891693D01*
X104085709Y-113891693D01*
X104083261Y-113891500D01*
X103927729Y-113891500D01*
X103925593Y-113891646D01*
X103925582Y-113891646D01*
X103717452Y-113905835D01*
X103717446Y-113905836D01*
X103713175Y-113906127D01*
X103708980Y-113906996D01*
X103708978Y-113906996D01*
X103578001Y-113934120D01*
X103431658Y-113964426D01*
X103160657Y-114060393D01*
X102905188Y-114192250D01*
X102901687Y-114194711D01*
X102901683Y-114194713D01*
X102891594Y-114201804D01*
X102669977Y-114357559D01*
X102597719Y-114424705D01*
X102466500Y-114546642D01*
X102459378Y-114553260D01*
X102277287Y-114775732D01*
X102127073Y-115020858D01*
X102011517Y-115284102D01*
X102010342Y-115288229D01*
X102010341Y-115288230D01*
X101989176Y-115362531D01*
X101932756Y-115560594D01*
X101914500Y-115688872D01*
X101893851Y-115833963D01*
X101892249Y-115845216D01*
X101892227Y-115849505D01*
X101892226Y-115849512D01*
X101890780Y-116125637D01*
X101890743Y-116132703D01*
X100508500Y-116132703D01*
X100508500Y-104770349D01*
X102868801Y-104770349D01*
X102869394Y-104777641D01*
X102869394Y-104777644D01*
X102873085Y-104823018D01*
X102873500Y-104833233D01*
X102873500Y-104841293D01*
X102873925Y-104844937D01*
X102876789Y-104869507D01*
X102877222Y-104873882D01*
X102880767Y-104917459D01*
X102883140Y-104946637D01*
X102885396Y-104953601D01*
X102886587Y-104959560D01*
X102887971Y-104965415D01*
X102888818Y-104972681D01*
X102913735Y-105041327D01*
X102915152Y-105045455D01*
X102918235Y-105054970D01*
X102937649Y-105114899D01*
X102941445Y-105121154D01*
X102943951Y-105126628D01*
X102946670Y-105132058D01*
X102949167Y-105138937D01*
X102953180Y-105145057D01*
X102953180Y-105145058D01*
X102989186Y-105199976D01*
X102991523Y-105203680D01*
X103029405Y-105266107D01*
X103033121Y-105270315D01*
X103033122Y-105270316D01*
X103036803Y-105274484D01*
X103036776Y-105274508D01*
X103039429Y-105277500D01*
X103042132Y-105280733D01*
X103046144Y-105286852D01*
X103051456Y-105291884D01*
X103102383Y-105340128D01*
X103104825Y-105342506D01*
X104067595Y-106305276D01*
X104101621Y-106367588D01*
X104104500Y-106394371D01*
X104104500Y-107034134D01*
X104111255Y-107096316D01*
X104162385Y-107232705D01*
X104249739Y-107349261D01*
X104366295Y-107436615D01*
X104502684Y-107487745D01*
X104564866Y-107494500D01*
X104659547Y-107494500D01*
X104727668Y-107514502D01*
X104748642Y-107531405D01*
X105910148Y-108692911D01*
X105922534Y-108707323D01*
X105931067Y-108718918D01*
X105931072Y-108718923D01*
X105935410Y-108724818D01*
X105940988Y-108729557D01*
X105940991Y-108729560D01*
X105975686Y-108759035D01*
X105983202Y-108765965D01*
X105988898Y-108771661D01*
X105991759Y-108773924D01*
X105991764Y-108773929D01*
X106011184Y-108789293D01*
X106014585Y-108792082D01*
X106070203Y-108839333D01*
X106076716Y-108842659D01*
X106081755Y-108846020D01*
X106086897Y-108849196D01*
X106092634Y-108853734D01*
X106158793Y-108884655D01*
X106162687Y-108886558D01*
X106227726Y-108919769D01*
X106234835Y-108921508D01*
X106240469Y-108923604D01*
X106246239Y-108925523D01*
X106252868Y-108928622D01*
X106260031Y-108930112D01*
X106260034Y-108930113D01*
X106310748Y-108940661D01*
X106324353Y-108943491D01*
X106328619Y-108944457D01*
X106399528Y-108961808D01*
X106405130Y-108962156D01*
X106405133Y-108962156D01*
X106410682Y-108962500D01*
X106410680Y-108962535D01*
X106414652Y-108962775D01*
X106418873Y-108963152D01*
X106426033Y-108964641D01*
X106503460Y-108962546D01*
X106506868Y-108962500D01*
X110854430Y-108962500D01*
X110873380Y-108963933D01*
X110887615Y-108966099D01*
X110887619Y-108966099D01*
X110894849Y-108967199D01*
X110902141Y-108966606D01*
X110902144Y-108966606D01*
X110947518Y-108962915D01*
X110957733Y-108962500D01*
X110965793Y-108962500D01*
X110983180Y-108960473D01*
X110994007Y-108959211D01*
X110998382Y-108958778D01*
X111063839Y-108953454D01*
X111063842Y-108953453D01*
X111071137Y-108952860D01*
X111078101Y-108950604D01*
X111084060Y-108949413D01*
X111089915Y-108948029D01*
X111097181Y-108947182D01*
X111165827Y-108922265D01*
X111169955Y-108920848D01*
X111232436Y-108900607D01*
X111232438Y-108900606D01*
X111239399Y-108898351D01*
X111245654Y-108894555D01*
X111251128Y-108892049D01*
X111256558Y-108889330D01*
X111263437Y-108886833D01*
X111305276Y-108859402D01*
X111324476Y-108846814D01*
X111328180Y-108844477D01*
X111390607Y-108806595D01*
X111398984Y-108799197D01*
X111399008Y-108799224D01*
X111402000Y-108796571D01*
X111405233Y-108793868D01*
X111411352Y-108789856D01*
X111464628Y-108733617D01*
X111467006Y-108731175D01*
X116029776Y-104168405D01*
X116092088Y-104134379D01*
X116118871Y-104131500D01*
X116327072Y-104131500D01*
X116330318Y-104131163D01*
X116330322Y-104131163D01*
X116424235Y-104121419D01*
X116424239Y-104121418D01*
X116431093Y-104120707D01*
X116437629Y-104118526D01*
X116437631Y-104118526D01*
X116589159Y-104067972D01*
X116596107Y-104065654D01*
X116606362Y-104059308D01*
X116674814Y-104040470D01*
X116742584Y-104061631D01*
X116788155Y-104116072D01*
X116797059Y-104186508D01*
X116792258Y-104206119D01*
X116767026Y-104282191D01*
X116766326Y-104289027D01*
X116766325Y-104289030D01*
X116764918Y-104302768D01*
X116756500Y-104384928D01*
X116756500Y-104719905D01*
X116736498Y-104788026D01*
X116719595Y-104809000D01*
X116705865Y-104822730D01*
X116703385Y-104825927D01*
X116695682Y-104834947D01*
X116665414Y-104867179D01*
X116661595Y-104874125D01*
X116661593Y-104874128D01*
X116655652Y-104884934D01*
X116644801Y-104901453D01*
X116632386Y-104917459D01*
X116629241Y-104924728D01*
X116629238Y-104924732D01*
X116614826Y-104958037D01*
X116609609Y-104968687D01*
X116588305Y-105007440D01*
X116586334Y-105015115D01*
X116586334Y-105015116D01*
X116583267Y-105027062D01*
X116576863Y-105045766D01*
X116568819Y-105064355D01*
X116567580Y-105072178D01*
X116567577Y-105072188D01*
X116561901Y-105108024D01*
X116559495Y-105119644D01*
X116557773Y-105126352D01*
X116548500Y-105162470D01*
X116548500Y-105182724D01*
X116546949Y-105202434D01*
X116543780Y-105222443D01*
X116547908Y-105266107D01*
X116547941Y-105266461D01*
X116548500Y-105278319D01*
X116548500Y-105493476D01*
X116528498Y-105561597D01*
X116516142Y-105577779D01*
X116442960Y-105659056D01*
X116347473Y-105824444D01*
X116288458Y-106006072D01*
X116287768Y-106012633D01*
X116287768Y-106012635D01*
X116279141Y-106094717D01*
X116268496Y-106196000D01*
X116282938Y-106333402D01*
X116284338Y-106346725D01*
X116271566Y-106416564D01*
X116223064Y-106468410D01*
X116154231Y-106485805D01*
X116132833Y-106483143D01*
X116095924Y-106475298D01*
X116013944Y-106457872D01*
X116013939Y-106457872D01*
X116007487Y-106456500D01*
X115816513Y-106456500D01*
X115810061Y-106457872D01*
X115810056Y-106457872D01*
X115728076Y-106475298D01*
X115629712Y-106496206D01*
X115623682Y-106498891D01*
X115623681Y-106498891D01*
X115592789Y-106512645D01*
X115469457Y-106567556D01*
X115462604Y-106570607D01*
X115411355Y-106581500D01*
X115113866Y-106581500D01*
X115051684Y-106588255D01*
X114915295Y-106639385D01*
X114798739Y-106726739D01*
X114711385Y-106843295D01*
X114660255Y-106979684D01*
X114653500Y-107041866D01*
X114653500Y-107688134D01*
X114660255Y-107750316D01*
X114711385Y-107886705D01*
X114798739Y-108003261D01*
X114915295Y-108090615D01*
X115051684Y-108141745D01*
X115113866Y-108148500D01*
X115411355Y-108148500D01*
X115462604Y-108159393D01*
X115484880Y-108169311D01*
X115621009Y-108229919D01*
X115629712Y-108233794D01*
X115723113Y-108253647D01*
X115810056Y-108272128D01*
X115810061Y-108272128D01*
X115816513Y-108273500D01*
X116007487Y-108273500D01*
X116013939Y-108272128D01*
X116013944Y-108272128D01*
X116100887Y-108253647D01*
X116194288Y-108233794D01*
X116202992Y-108229919D01*
X116339120Y-108169311D01*
X116361396Y-108159393D01*
X116412645Y-108148500D01*
X116710134Y-108148500D01*
X116772316Y-108141745D01*
X116908705Y-108090615D01*
X117025261Y-108003261D01*
X117112615Y-107886705D01*
X117163745Y-107750316D01*
X117170500Y-107688134D01*
X117170500Y-107228502D01*
X117190502Y-107160381D01*
X117244158Y-107113888D01*
X117277545Y-107104772D01*
X117277487Y-107104500D01*
X117283940Y-107103128D01*
X117283943Y-107103128D01*
X117352949Y-107088460D01*
X117464288Y-107064794D01*
X117508111Y-107045283D01*
X117632722Y-106989803D01*
X117632724Y-106989802D01*
X117638752Y-106987118D01*
X117685252Y-106953334D01*
X117736125Y-106916372D01*
X117793253Y-106874866D01*
X117867792Y-106792082D01*
X117916621Y-106737852D01*
X117916622Y-106737851D01*
X117921040Y-106732944D01*
X118003976Y-106589295D01*
X118013223Y-106573279D01*
X118013224Y-106573278D01*
X118016527Y-106567556D01*
X118075542Y-106385928D01*
X118079663Y-106346725D01*
X118094814Y-106202565D01*
X118094814Y-106202564D01*
X118095504Y-106196000D01*
X118084859Y-106094717D01*
X118076232Y-106012635D01*
X118076232Y-106012633D01*
X118075542Y-106006072D01*
X118016527Y-105824444D01*
X118015854Y-105823279D01*
X118006678Y-105754848D01*
X118036784Y-105690551D01*
X118096872Y-105652736D01*
X118118216Y-105648637D01*
X118149235Y-105645419D01*
X118149239Y-105645418D01*
X118156093Y-105644707D01*
X118162629Y-105642526D01*
X118162631Y-105642526D01*
X118295395Y-105598232D01*
X118321107Y-105589654D01*
X118469031Y-105498116D01*
X118474204Y-105492934D01*
X118586758Y-105380184D01*
X118586762Y-105380179D01*
X118591929Y-105375003D01*
X118623224Y-105324233D01*
X118679369Y-105233150D01*
X118679370Y-105233148D01*
X118683209Y-105226920D01*
X118737974Y-105061809D01*
X118739847Y-105043535D01*
X118744940Y-104993815D01*
X118748500Y-104959072D01*
X118748500Y-104384928D01*
X118746552Y-104366152D01*
X118738419Y-104287765D01*
X118738418Y-104287761D01*
X118737707Y-104280907D01*
X118720646Y-104229767D01*
X118684972Y-104122841D01*
X118682654Y-104115893D01*
X118591116Y-103967969D01*
X118585934Y-103962796D01*
X118473184Y-103850242D01*
X118473179Y-103850238D01*
X118468003Y-103845071D01*
X118393504Y-103799149D01*
X118326150Y-103757631D01*
X118326148Y-103757630D01*
X118319920Y-103753791D01*
X118154809Y-103699026D01*
X118147973Y-103698326D01*
X118147970Y-103698325D01*
X118096474Y-103693049D01*
X118052072Y-103688500D01*
X117452928Y-103688500D01*
X117449682Y-103688837D01*
X117449678Y-103688837D01*
X117355765Y-103698581D01*
X117355761Y-103698582D01*
X117348907Y-103699293D01*
X117342371Y-103701474D01*
X117342369Y-103701474D01*
X117209605Y-103745768D01*
X117183893Y-103754346D01*
X117177661Y-103758202D01*
X117177662Y-103758202D01*
X117173638Y-103760692D01*
X117105186Y-103779530D01*
X117037416Y-103758369D01*
X116991845Y-103703928D01*
X116982941Y-103633492D01*
X116987742Y-103613881D01*
X116989743Y-103607849D01*
X117012974Y-103537809D01*
X117016559Y-103502824D01*
X117020339Y-103465927D01*
X117023500Y-103435072D01*
X117023500Y-102860928D01*
X117023163Y-102857678D01*
X117013419Y-102763765D01*
X117013418Y-102763761D01*
X117012707Y-102756907D01*
X117000718Y-102720971D01*
X116972504Y-102636403D01*
X116969920Y-102565453D01*
X117006104Y-102504370D01*
X117069568Y-102472545D01*
X117142070Y-102480891D01*
X117142577Y-102481110D01*
X117149399Y-102485145D01*
X117157005Y-102487355D01*
X117157008Y-102487356D01*
X117227370Y-102507797D01*
X117309169Y-102531562D01*
X117315574Y-102532066D01*
X117315579Y-102532067D01*
X117344042Y-102534307D01*
X117344050Y-102534307D01*
X117346498Y-102534500D01*
X117779502Y-102534500D01*
X117781950Y-102534307D01*
X117781958Y-102534307D01*
X117810421Y-102532067D01*
X117810426Y-102532066D01*
X117816831Y-102531562D01*
X117916847Y-102502505D01*
X117968988Y-102487357D01*
X117968990Y-102487356D01*
X117976601Y-102485145D01*
X118031765Y-102452521D01*
X118112980Y-102404491D01*
X118112983Y-102404489D01*
X118119807Y-102400453D01*
X118125416Y-102394844D01*
X118131675Y-102389989D01*
X118132643Y-102391237D01*
X118186979Y-102361567D01*
X118257794Y-102366632D01*
X118314630Y-102409179D01*
X118334761Y-102449544D01*
X118334980Y-102450298D01*
X118338987Y-102469650D01*
X118340435Y-102481108D01*
X118341526Y-102489747D01*
X118344445Y-102497118D01*
X118344445Y-102497120D01*
X118357804Y-102530862D01*
X118361649Y-102542092D01*
X118365870Y-102556620D01*
X118373982Y-102584543D01*
X118378015Y-102591362D01*
X118378017Y-102591367D01*
X118384293Y-102601978D01*
X118392988Y-102619726D01*
X118400448Y-102638567D01*
X118405110Y-102644983D01*
X118405110Y-102644984D01*
X118426436Y-102674337D01*
X118432952Y-102684257D01*
X118447793Y-102709351D01*
X118455458Y-102722312D01*
X118469779Y-102736633D01*
X118482618Y-102751665D01*
X118494528Y-102768057D01*
X118500634Y-102773108D01*
X118528605Y-102796248D01*
X118537384Y-102804238D01*
X118610911Y-102877765D01*
X118644937Y-102940077D01*
X118647125Y-102953686D01*
X118652777Y-103007459D01*
X118661370Y-103089212D01*
X118664491Y-103118911D01*
X118723506Y-103300539D01*
X118726809Y-103306261D01*
X118726810Y-103306262D01*
X118760719Y-103364993D01*
X118818993Y-103465927D01*
X118946780Y-103607849D01*
X119101281Y-103720101D01*
X119107309Y-103722785D01*
X119107311Y-103722786D01*
X119192450Y-103760692D01*
X119275745Y-103797777D01*
X119369145Y-103817630D01*
X119456089Y-103836111D01*
X119456094Y-103836111D01*
X119462546Y-103837483D01*
X119653520Y-103837483D01*
X119659972Y-103836111D01*
X119659977Y-103836111D01*
X119746921Y-103817630D01*
X119840321Y-103797777D01*
X119923616Y-103760692D01*
X120008755Y-103722786D01*
X120008757Y-103722785D01*
X120014785Y-103720101D01*
X120169286Y-103607849D01*
X120297073Y-103465927D01*
X120355347Y-103364993D01*
X120389256Y-103306262D01*
X120389257Y-103306261D01*
X120392560Y-103300539D01*
X120402612Y-103269602D01*
X120442686Y-103210996D01*
X120508083Y-103183360D01*
X120578040Y-103195467D01*
X120611540Y-103219444D01*
X120995595Y-103603499D01*
X121029621Y-103665811D01*
X121032500Y-103692594D01*
X121032500Y-104879201D01*
X121012498Y-104947322D01*
X120958842Y-104993815D01*
X120906500Y-105005201D01*
X120804214Y-105005201D01*
X120797762Y-105006573D01*
X120797757Y-105006573D01*
X120710813Y-105025054D01*
X120617413Y-105044907D01*
X120611383Y-105047592D01*
X120611382Y-105047592D01*
X120448979Y-105119898D01*
X120448977Y-105119899D01*
X120442949Y-105122583D01*
X120437608Y-105126463D01*
X120437607Y-105126464D01*
X120420440Y-105138937D01*
X120288448Y-105234835D01*
X120284027Y-105239745D01*
X120284026Y-105239746D01*
X120248656Y-105279029D01*
X120160661Y-105376757D01*
X120065174Y-105542145D01*
X120063133Y-105548427D01*
X120047822Y-105595549D01*
X120017084Y-105645707D01*
X117769747Y-107893043D01*
X117761461Y-107900583D01*
X117754982Y-107904695D01*
X117749557Y-107910472D01*
X117708357Y-107954346D01*
X117705602Y-107957188D01*
X117685865Y-107976925D01*
X117683385Y-107980122D01*
X117675682Y-107989142D01*
X117645414Y-108021374D01*
X117641595Y-108028320D01*
X117641593Y-108028323D01*
X117635652Y-108039129D01*
X117624801Y-108055648D01*
X117612386Y-108071654D01*
X117609241Y-108078923D01*
X117609238Y-108078927D01*
X117594826Y-108112232D01*
X117589609Y-108122882D01*
X117568305Y-108161635D01*
X117566334Y-108169310D01*
X117566334Y-108169311D01*
X117563267Y-108181257D01*
X117556863Y-108199961D01*
X117548819Y-108218550D01*
X117547580Y-108226373D01*
X117547577Y-108226383D01*
X117541901Y-108262219D01*
X117539495Y-108273839D01*
X117528500Y-108316665D01*
X117528500Y-108336919D01*
X117526949Y-108356629D01*
X117523780Y-108376638D01*
X117524526Y-108384530D01*
X117527941Y-108420656D01*
X117528500Y-108432514D01*
X117528500Y-109725406D01*
X117508498Y-109793527D01*
X117491595Y-109814501D01*
X113747580Y-113558516D01*
X113685268Y-113592542D01*
X113656836Y-113595410D01*
X113555824Y-113594088D01*
X113486340Y-113593178D01*
X113480643Y-113594157D01*
X113480642Y-113594157D01*
X113423191Y-113604029D01*
X113284830Y-113627804D01*
X113093005Y-113698572D01*
X112917288Y-113803113D01*
X112763564Y-113937925D01*
X112759992Y-113942456D01*
X112667018Y-114060393D01*
X112636982Y-114098493D01*
X112634294Y-114103602D01*
X112544470Y-114274329D01*
X112544468Y-114274334D01*
X112541781Y-114279441D01*
X112531618Y-114312172D01*
X112494444Y-114431891D01*
X112481149Y-114474707D01*
X112457117Y-114677753D01*
X112470489Y-114881779D01*
X112520819Y-115079951D01*
X112606419Y-115265633D01*
X112724424Y-115432606D01*
X112755682Y-115463056D01*
X112824392Y-115529990D01*
X112870882Y-115575279D01*
X112875678Y-115578484D01*
X112875681Y-115578486D01*
X113000716Y-115662031D01*
X113040887Y-115688872D01*
X113046190Y-115691150D01*
X113046193Y-115691152D01*
X113223439Y-115767303D01*
X113228746Y-115769583D01*
X113325772Y-115791538D01*
X113422532Y-115813433D01*
X113422535Y-115813433D01*
X113428168Y-115814708D01*
X113433939Y-115814935D01*
X113433941Y-115814935D01*
X113496646Y-115817398D01*
X113632473Y-115822735D01*
X113755307Y-115804925D01*
X113829099Y-115794226D01*
X113829103Y-115794225D01*
X113834821Y-115793396D01*
X113840293Y-115791538D01*
X113840295Y-115791538D01*
X113944310Y-115756229D01*
X114028433Y-115727673D01*
X114206826Y-115627768D01*
X114242567Y-115598042D01*
X114307732Y-115569861D01*
X114377788Y-115581385D01*
X114393138Y-115590150D01*
X114540887Y-115688872D01*
X114546190Y-115691150D01*
X114546193Y-115691152D01*
X114723439Y-115767303D01*
X114728746Y-115769583D01*
X114825772Y-115791538D01*
X114922532Y-115813433D01*
X114922535Y-115813433D01*
X114928168Y-115814708D01*
X114933939Y-115814935D01*
X114933941Y-115814935D01*
X114996646Y-115817398D01*
X115132473Y-115822735D01*
X115149555Y-115820258D01*
X115180010Y-115815843D01*
X115250296Y-115825864D01*
X115287184Y-115851444D01*
X115504345Y-116068605D01*
X115512335Y-116077385D01*
X115516584Y-116084080D01*
X115522362Y-116089506D01*
X115522363Y-116089507D01*
X115568257Y-116132604D01*
X115571099Y-116135359D01*
X115591667Y-116155927D01*
X115595170Y-116158644D01*
X115604195Y-116166352D01*
X115637867Y-116197972D01*
X115644818Y-116201793D01*
X115644819Y-116201794D01*
X115656658Y-116208303D01*
X115673182Y-116219157D01*
X115683271Y-116226982D01*
X115690132Y-116232304D01*
X115697404Y-116235451D01*
X115697406Y-116235452D01*
X115732535Y-116250654D01*
X115743195Y-116255876D01*
X115773168Y-116272354D01*
X115783663Y-116278124D01*
X115804441Y-116283459D01*
X115823131Y-116289858D01*
X115842824Y-116298380D01*
X115877563Y-116303882D01*
X115888448Y-116305606D01*
X115900071Y-116308013D01*
X115924754Y-116314350D01*
X115944812Y-116319500D01*
X115966259Y-116319500D01*
X115985969Y-116321051D01*
X116007152Y-116324406D01*
X116053141Y-116320059D01*
X116064996Y-116319500D01*
X120665944Y-116319500D01*
X120677800Y-116320059D01*
X120677803Y-116320059D01*
X120685537Y-116321788D01*
X120756369Y-116319562D01*
X120760327Y-116319500D01*
X120789432Y-116319500D01*
X120793832Y-116318944D01*
X120805664Y-116318012D01*
X120851831Y-116316562D01*
X120872421Y-116310580D01*
X120891782Y-116306570D01*
X120899416Y-116305606D01*
X120905204Y-116304875D01*
X120905205Y-116304875D01*
X120913064Y-116303882D01*
X120920429Y-116300966D01*
X120920433Y-116300965D01*
X120956021Y-116286874D01*
X120967231Y-116283035D01*
X121011600Y-116270145D01*
X121030065Y-116259225D01*
X121047805Y-116250534D01*
X121067756Y-116242635D01*
X121105129Y-116215482D01*
X121115048Y-116208967D01*
X121147977Y-116189493D01*
X121147981Y-116189490D01*
X121154807Y-116185453D01*
X121169971Y-116170289D01*
X121185005Y-116157448D01*
X121202357Y-116144841D01*
X121231803Y-116109247D01*
X121239792Y-116100468D01*
X121487738Y-115852522D01*
X121550050Y-115818496D01*
X121581778Y-115815714D01*
X121760473Y-115822735D01*
X121883307Y-115804925D01*
X121957099Y-115794226D01*
X121957103Y-115794225D01*
X121962821Y-115793396D01*
X121968293Y-115791538D01*
X121968295Y-115791538D01*
X122072310Y-115756229D01*
X122156433Y-115727673D01*
X122334826Y-115627768D01*
X122370567Y-115598042D01*
X122435732Y-115569861D01*
X122505788Y-115581385D01*
X122521138Y-115590150D01*
X122668887Y-115688872D01*
X122674190Y-115691150D01*
X122674193Y-115691152D01*
X122851439Y-115767303D01*
X122856746Y-115769583D01*
X122953772Y-115791538D01*
X123050532Y-115813433D01*
X123050535Y-115813433D01*
X123056168Y-115814708D01*
X123061939Y-115814935D01*
X123061941Y-115814935D01*
X123124646Y-115817398D01*
X123260473Y-115822735D01*
X123277555Y-115820258D01*
X123308010Y-115815843D01*
X123378296Y-115825864D01*
X123415184Y-115851444D01*
X123632345Y-116068605D01*
X123640335Y-116077385D01*
X123644584Y-116084080D01*
X123650362Y-116089506D01*
X123650363Y-116089507D01*
X123696257Y-116132604D01*
X123699099Y-116135359D01*
X123719667Y-116155927D01*
X123723170Y-116158644D01*
X123732195Y-116166352D01*
X123765867Y-116197972D01*
X123772818Y-116201793D01*
X123772819Y-116201794D01*
X123784658Y-116208303D01*
X123801182Y-116219157D01*
X123811271Y-116226982D01*
X123818132Y-116232304D01*
X123825404Y-116235451D01*
X123825406Y-116235452D01*
X123860535Y-116250654D01*
X123871195Y-116255876D01*
X123901168Y-116272354D01*
X123911663Y-116278124D01*
X123932441Y-116283459D01*
X123951131Y-116289858D01*
X123970824Y-116298380D01*
X124005563Y-116303882D01*
X124016448Y-116305606D01*
X124028071Y-116308013D01*
X124052754Y-116314350D01*
X124072812Y-116319500D01*
X124094259Y-116319500D01*
X124113969Y-116321051D01*
X124135152Y-116324406D01*
X124181141Y-116320059D01*
X124192996Y-116319500D01*
X128793944Y-116319500D01*
X128805800Y-116320059D01*
X128805803Y-116320059D01*
X128813537Y-116321788D01*
X128884369Y-116319562D01*
X128888327Y-116319500D01*
X128917432Y-116319500D01*
X128921832Y-116318944D01*
X128933664Y-116318012D01*
X128979831Y-116316562D01*
X129000421Y-116310580D01*
X129019782Y-116306570D01*
X129027416Y-116305606D01*
X129033204Y-116304875D01*
X129033205Y-116304875D01*
X129041064Y-116303882D01*
X129048429Y-116300966D01*
X129048433Y-116300965D01*
X129084021Y-116286874D01*
X129095231Y-116283035D01*
X129139600Y-116270145D01*
X129158065Y-116259225D01*
X129175805Y-116250534D01*
X129195756Y-116242635D01*
X129233129Y-116215482D01*
X129243048Y-116208967D01*
X129275977Y-116189493D01*
X129275981Y-116189490D01*
X129282807Y-116185453D01*
X129297971Y-116170289D01*
X129313005Y-116157448D01*
X129330357Y-116144841D01*
X129359803Y-116109247D01*
X129367792Y-116100468D01*
X129615738Y-115852522D01*
X129678050Y-115818496D01*
X129709778Y-115815714D01*
X129888473Y-115822735D01*
X130011307Y-115804925D01*
X130085099Y-115794226D01*
X130085103Y-115794225D01*
X130090821Y-115793396D01*
X130096293Y-115791538D01*
X130096295Y-115791538D01*
X130200310Y-115756229D01*
X130284433Y-115727673D01*
X130462826Y-115627768D01*
X130498567Y-115598042D01*
X130563732Y-115569861D01*
X130633788Y-115581385D01*
X130649138Y-115590150D01*
X130796887Y-115688872D01*
X130802190Y-115691150D01*
X130802193Y-115691152D01*
X130979439Y-115767303D01*
X130984746Y-115769583D01*
X131081772Y-115791538D01*
X131178532Y-115813433D01*
X131178535Y-115813433D01*
X131184168Y-115814708D01*
X131189939Y-115814935D01*
X131189941Y-115814935D01*
X131252646Y-115817398D01*
X131388473Y-115822735D01*
X131405555Y-115820258D01*
X131436010Y-115815843D01*
X131506296Y-115825864D01*
X131543184Y-115851444D01*
X134173345Y-118481605D01*
X134181335Y-118490385D01*
X134185584Y-118497080D01*
X134191362Y-118502506D01*
X134191363Y-118502507D01*
X134237257Y-118545604D01*
X134240099Y-118548359D01*
X134260667Y-118568927D01*
X134264170Y-118571644D01*
X134273195Y-118579352D01*
X134306867Y-118610972D01*
X134313818Y-118614793D01*
X134313819Y-118614794D01*
X134325658Y-118621303D01*
X134342182Y-118632157D01*
X134352271Y-118639982D01*
X134359132Y-118645304D01*
X134366404Y-118648451D01*
X134366406Y-118648452D01*
X134401535Y-118663654D01*
X134412196Y-118668876D01*
X134452663Y-118691124D01*
X134473441Y-118696459D01*
X134492131Y-118702858D01*
X134511824Y-118711380D01*
X134555596Y-118718313D01*
X134557448Y-118718606D01*
X134569071Y-118721013D01*
X134597072Y-118728202D01*
X134613812Y-118732500D01*
X134635259Y-118732500D01*
X134654969Y-118734051D01*
X134676152Y-118737406D01*
X134722141Y-118733059D01*
X134733996Y-118732500D01*
X138636756Y-118732500D01*
X138704877Y-118752502D01*
X138739652Y-118785779D01*
X138749424Y-118799606D01*
X138895882Y-118942279D01*
X138900678Y-118945484D01*
X138900681Y-118945486D01*
X139006340Y-119016084D01*
X139065887Y-119055872D01*
X139071190Y-119058150D01*
X139071193Y-119058152D01*
X139160518Y-119096529D01*
X139253746Y-119136583D01*
X139350772Y-119158538D01*
X139447532Y-119180433D01*
X139447535Y-119180433D01*
X139453168Y-119181708D01*
X139458939Y-119181935D01*
X139458941Y-119181935D01*
X139521646Y-119184398D01*
X139657473Y-119189735D01*
X139776344Y-119172500D01*
X139854099Y-119161226D01*
X139854103Y-119161225D01*
X139859821Y-119160396D01*
X139865293Y-119158538D01*
X139865295Y-119158538D01*
X140047965Y-119096529D01*
X140053433Y-119094673D01*
X140231826Y-118994768D01*
X140389026Y-118864026D01*
X140519768Y-118706826D01*
X140619673Y-118528433D01*
X140685396Y-118334821D01*
X140714735Y-118132473D01*
X140716266Y-118074000D01*
X140697557Y-117870394D01*
X140642058Y-117673608D01*
X140551626Y-117490230D01*
X140484477Y-117400307D01*
X140459745Y-117333757D01*
X140474919Y-117264401D01*
X140488560Y-117244350D01*
X140516071Y-117211271D01*
X140519768Y-117206826D01*
X140619673Y-117028433D01*
X140685396Y-116834821D01*
X140697872Y-116748779D01*
X140702639Y-116715898D01*
X140714735Y-116632473D01*
X140716266Y-116574000D01*
X140706020Y-116462488D01*
X140719705Y-116392823D01*
X140742396Y-116361864D01*
X140960605Y-116143655D01*
X140969385Y-116135665D01*
X140969387Y-116135663D01*
X140976080Y-116131416D01*
X141024605Y-116079742D01*
X141027359Y-116076901D01*
X141047927Y-116056333D01*
X141050647Y-116052826D01*
X141058353Y-116043804D01*
X141084544Y-116015913D01*
X141089972Y-116010133D01*
X141093794Y-116003181D01*
X141100303Y-115991342D01*
X141111157Y-115974818D01*
X141119445Y-115964132D01*
X141124304Y-115957868D01*
X141127452Y-115950594D01*
X141142654Y-115915465D01*
X141147876Y-115904805D01*
X141166305Y-115871284D01*
X141166306Y-115871282D01*
X141170124Y-115864337D01*
X141175459Y-115843559D01*
X141181858Y-115824869D01*
X141190380Y-115805176D01*
X141197606Y-115759552D01*
X141200013Y-115747929D01*
X141209528Y-115710868D01*
X141211500Y-115703188D01*
X141211500Y-115681741D01*
X141213051Y-115662031D01*
X141215166Y-115648677D01*
X141216406Y-115640848D01*
X141212059Y-115594859D01*
X141211500Y-115583004D01*
X141211500Y-110982059D01*
X141212059Y-110970203D01*
X141213789Y-110962463D01*
X141212774Y-110930152D01*
X141211562Y-110891611D01*
X141211500Y-110887653D01*
X141211500Y-110858568D01*
X141210946Y-110854179D01*
X141210013Y-110842337D01*
X141208811Y-110804094D01*
X141208562Y-110796169D01*
X141202580Y-110775579D01*
X141198570Y-110756216D01*
X141196875Y-110742796D01*
X141196875Y-110742795D01*
X141195882Y-110734936D01*
X141192966Y-110727571D01*
X141192965Y-110727567D01*
X141178874Y-110691979D01*
X141175035Y-110680769D01*
X141162145Y-110636400D01*
X141151225Y-110617935D01*
X141142534Y-110600195D01*
X141134635Y-110580244D01*
X141107482Y-110542871D01*
X141100967Y-110532952D01*
X141081493Y-110500023D01*
X141081490Y-110500019D01*
X141077453Y-110493193D01*
X141062289Y-110478029D01*
X141049448Y-110462995D01*
X141041501Y-110452057D01*
X141036841Y-110445643D01*
X141001247Y-110416197D01*
X140992468Y-110408208D01*
X140743444Y-110159184D01*
X140709418Y-110096872D01*
X140707843Y-110052010D01*
X140714202Y-110008150D01*
X140714202Y-110008148D01*
X140714735Y-110004473D01*
X140716266Y-109946000D01*
X140697557Y-109742394D01*
X140689467Y-109713707D01*
X140643627Y-109551172D01*
X140642058Y-109545608D01*
X140551626Y-109362230D01*
X140524269Y-109325594D01*
X140484477Y-109272307D01*
X140459745Y-109205757D01*
X140474919Y-109136401D01*
X140488560Y-109116350D01*
X140516071Y-109083271D01*
X140519768Y-109078826D01*
X140619673Y-108900433D01*
X140685396Y-108706821D01*
X140687304Y-108693666D01*
X140713111Y-108515673D01*
X140714735Y-108504473D01*
X140716266Y-108446000D01*
X140697557Y-108242394D01*
X140694375Y-108231109D01*
X140653232Y-108085229D01*
X140642058Y-108045608D01*
X140551626Y-107862230D01*
X140468056Y-107750316D01*
X140432743Y-107703027D01*
X140432743Y-107703026D01*
X140429290Y-107698403D01*
X140279148Y-107559613D01*
X140106228Y-107450509D01*
X140073802Y-107437572D01*
X140011247Y-107412615D01*
X139916321Y-107374743D01*
X139910653Y-107373616D01*
X139910651Y-107373615D01*
X139721454Y-107335982D01*
X139721450Y-107335982D01*
X139715786Y-107334855D01*
X139710011Y-107334779D01*
X139710007Y-107334779D01*
X139607466Y-107333437D01*
X139511340Y-107332178D01*
X139505643Y-107333157D01*
X139505642Y-107333157D01*
X139380608Y-107354642D01*
X139309830Y-107366804D01*
X139118005Y-107437572D01*
X139113044Y-107440524D01*
X139113043Y-107440524D01*
X139019266Y-107496316D01*
X138942288Y-107542113D01*
X138788564Y-107676925D01*
X138784992Y-107681456D01*
X138698104Y-107791673D01*
X138661982Y-107837493D01*
X138659294Y-107842602D01*
X138569470Y-108013329D01*
X138569468Y-108013334D01*
X138566781Y-108018441D01*
X138557661Y-108047812D01*
X138513892Y-108188771D01*
X138506149Y-108213707D01*
X138482117Y-108416753D01*
X138495489Y-108620779D01*
X138545819Y-108818951D01*
X138548236Y-108824194D01*
X138611800Y-108962075D01*
X138631419Y-109004633D01*
X138715570Y-109123703D01*
X138715605Y-109123753D01*
X138738586Y-109190927D01*
X138721602Y-109259862D01*
X138711658Y-109274479D01*
X138665556Y-109332959D01*
X138661982Y-109337493D01*
X138659294Y-109342602D01*
X138569470Y-109513329D01*
X138569468Y-109513334D01*
X138566781Y-109518441D01*
X138556618Y-109551172D01*
X138527075Y-109646316D01*
X138506149Y-109713707D01*
X138482117Y-109916753D01*
X138495489Y-110120779D01*
X138545819Y-110318951D01*
X138548236Y-110324194D01*
X138570420Y-110372316D01*
X138631419Y-110504633D01*
X138749424Y-110671606D01*
X138785992Y-110707229D01*
X138877292Y-110796169D01*
X138895882Y-110814279D01*
X138900678Y-110817484D01*
X138900681Y-110817486D01*
X138968098Y-110862532D01*
X139065887Y-110927872D01*
X139071190Y-110930150D01*
X139071193Y-110930152D01*
X139146399Y-110962463D01*
X139253746Y-111008583D01*
X139353457Y-111031145D01*
X139447532Y-111052433D01*
X139447535Y-111052433D01*
X139453168Y-111053708D01*
X139458939Y-111053935D01*
X139458941Y-111053935D01*
X139521646Y-111056398D01*
X139657473Y-111061735D01*
X139674555Y-111059258D01*
X139705010Y-111054843D01*
X139775296Y-111064864D01*
X139812184Y-111090444D01*
X139857595Y-111135855D01*
X139891621Y-111198167D01*
X139894500Y-111224950D01*
X139894500Y-112335500D01*
X139874498Y-112403621D01*
X139820842Y-112450114D01*
X139768500Y-112461500D01*
X138946866Y-112461500D01*
X138884684Y-112468255D01*
X138748295Y-112519385D01*
X138631739Y-112606739D01*
X138544385Y-112723295D01*
X138493255Y-112859684D01*
X138486500Y-112921866D01*
X138486500Y-114226134D01*
X138493255Y-114288316D01*
X138544385Y-114424705D01*
X138631739Y-114541261D01*
X138748295Y-114628615D01*
X138884684Y-114679745D01*
X138946866Y-114686500D01*
X139768500Y-114686500D01*
X139836621Y-114706502D01*
X139883114Y-114760158D01*
X139894500Y-114812500D01*
X139894500Y-115295050D01*
X139874498Y-115363171D01*
X139857595Y-115384145D01*
X139814900Y-115426840D01*
X139752588Y-115460866D01*
X139715899Y-115462878D01*
X139715786Y-115462855D01*
X139710014Y-115462779D01*
X139710010Y-115462779D01*
X139602094Y-115461366D01*
X139511340Y-115460178D01*
X139505643Y-115461157D01*
X139505642Y-115461157D01*
X139374055Y-115483768D01*
X139309830Y-115494804D01*
X139118005Y-115565572D01*
X139113044Y-115568524D01*
X139113043Y-115568524D01*
X138955873Y-115662031D01*
X138942288Y-115670113D01*
X138788564Y-115804925D01*
X138784992Y-115809456D01*
X138709825Y-115904805D01*
X138661982Y-115965493D01*
X138659294Y-115970602D01*
X138569470Y-116141329D01*
X138569468Y-116141334D01*
X138566781Y-116146441D01*
X138544202Y-116219157D01*
X138511753Y-116323660D01*
X138506149Y-116341707D01*
X138482117Y-116544753D01*
X138495489Y-116748779D01*
X138545819Y-116946951D01*
X138631419Y-117132633D01*
X138634752Y-117137349D01*
X138690888Y-117216780D01*
X138713869Y-117283954D01*
X138696884Y-117352889D01*
X138645327Y-117401699D01*
X138587991Y-117415500D01*
X135021950Y-117415500D01*
X134953829Y-117395498D01*
X134932855Y-117378595D01*
X133588855Y-116034595D01*
X133554829Y-115972283D01*
X133559894Y-115901468D01*
X133602441Y-115844632D01*
X133668961Y-115819821D01*
X133677950Y-115819500D01*
X134982134Y-115819500D01*
X135044316Y-115812745D01*
X135180705Y-115761615D01*
X135297261Y-115674261D01*
X135384615Y-115557705D01*
X135435745Y-115421316D01*
X135442500Y-115359134D01*
X135442500Y-114054866D01*
X135435745Y-113992684D01*
X135384615Y-113856295D01*
X135297261Y-113739739D01*
X135180705Y-113652385D01*
X135044316Y-113601255D01*
X134982134Y-113594500D01*
X133677866Y-113594500D01*
X133615684Y-113601255D01*
X133479295Y-113652385D01*
X133362739Y-113739739D01*
X133275385Y-113856295D01*
X133224255Y-113992684D01*
X133217500Y-114054866D01*
X133217500Y-115359050D01*
X133197498Y-115427171D01*
X133143842Y-115473664D01*
X133073568Y-115483768D01*
X133008988Y-115454274D01*
X133002405Y-115448145D01*
X132474444Y-114920184D01*
X132440418Y-114857872D01*
X132438843Y-114813010D01*
X132445202Y-114769150D01*
X132445202Y-114769148D01*
X132445735Y-114765473D01*
X132447266Y-114707000D01*
X132428557Y-114503394D01*
X132420467Y-114474707D01*
X132388251Y-114360478D01*
X132373058Y-114306608D01*
X132282626Y-114123230D01*
X132242346Y-114069288D01*
X132163743Y-113964027D01*
X132163743Y-113964026D01*
X132160290Y-113959403D01*
X132010148Y-113820613D01*
X131837228Y-113711509D01*
X131804802Y-113698572D01*
X131778093Y-113687916D01*
X131647321Y-113635743D01*
X131641653Y-113634616D01*
X131641651Y-113634615D01*
X131452454Y-113596982D01*
X131452450Y-113596982D01*
X131446786Y-113595855D01*
X131441011Y-113595779D01*
X131441007Y-113595779D01*
X131338466Y-113594437D01*
X131242340Y-113593178D01*
X131236643Y-113594157D01*
X131236642Y-113594157D01*
X131179191Y-113604029D01*
X131040830Y-113627804D01*
X130849005Y-113698572D01*
X130673288Y-113803113D01*
X130664650Y-113810688D01*
X130663852Y-113811388D01*
X130599447Y-113841264D01*
X130529115Y-113831577D01*
X130510316Y-113820346D01*
X130510148Y-113820613D01*
X130342111Y-113714590D01*
X130342112Y-113714590D01*
X130337228Y-113711509D01*
X130304802Y-113698572D01*
X130278093Y-113687916D01*
X130147321Y-113635743D01*
X130141653Y-113634616D01*
X130141651Y-113634615D01*
X129952454Y-113596982D01*
X129952450Y-113596982D01*
X129946786Y-113595855D01*
X129941011Y-113595779D01*
X129941007Y-113595779D01*
X129838466Y-113594437D01*
X129742340Y-113593178D01*
X129736643Y-113594157D01*
X129736642Y-113594157D01*
X129679191Y-113604029D01*
X129540830Y-113627804D01*
X129349005Y-113698572D01*
X129173288Y-113803113D01*
X129019564Y-113937925D01*
X129015992Y-113942456D01*
X128923018Y-114060393D01*
X128892982Y-114098493D01*
X128890294Y-114103602D01*
X128800470Y-114274329D01*
X128800468Y-114274334D01*
X128797781Y-114279441D01*
X128787618Y-114312172D01*
X128750444Y-114431891D01*
X128737149Y-114474707D01*
X128713117Y-114677753D01*
X128713495Y-114683519D01*
X128722600Y-114822439D01*
X128707096Y-114891722D01*
X128685965Y-114919775D01*
X128640145Y-114965595D01*
X128577833Y-114999621D01*
X128551050Y-115002500D01*
X127440500Y-115002500D01*
X127372379Y-114982498D01*
X127325886Y-114928842D01*
X127314500Y-114876500D01*
X127314500Y-114054866D01*
X127307745Y-113992684D01*
X127256615Y-113856295D01*
X127169261Y-113739739D01*
X127052705Y-113652385D01*
X126916316Y-113601255D01*
X126854134Y-113594500D01*
X125549866Y-113594500D01*
X125487684Y-113601255D01*
X125351295Y-113652385D01*
X125234739Y-113739739D01*
X125147385Y-113856295D01*
X125096255Y-113992684D01*
X125089500Y-114054866D01*
X125089500Y-114876500D01*
X125069498Y-114944621D01*
X125015842Y-114991114D01*
X124963500Y-115002500D01*
X124480950Y-115002500D01*
X124412829Y-114982498D01*
X124391855Y-114965595D01*
X124346444Y-114920184D01*
X124312418Y-114857872D01*
X124310843Y-114813010D01*
X124317202Y-114769150D01*
X124317202Y-114769148D01*
X124317735Y-114765473D01*
X124319266Y-114707000D01*
X124300557Y-114503394D01*
X124292467Y-114474707D01*
X124260251Y-114360478D01*
X124245058Y-114306608D01*
X124154626Y-114123230D01*
X124114346Y-114069288D01*
X124035743Y-113964027D01*
X124035743Y-113964026D01*
X124032290Y-113959403D01*
X123882148Y-113820613D01*
X123709228Y-113711509D01*
X123676802Y-113698572D01*
X123650093Y-113687916D01*
X123519321Y-113635743D01*
X123513653Y-113634616D01*
X123513651Y-113634615D01*
X123324454Y-113596982D01*
X123324450Y-113596982D01*
X123318786Y-113595855D01*
X123313011Y-113595779D01*
X123313007Y-113595779D01*
X123210466Y-113594437D01*
X123114340Y-113593178D01*
X123108643Y-113594157D01*
X123108642Y-113594157D01*
X123051191Y-113604029D01*
X122912830Y-113627804D01*
X122721005Y-113698572D01*
X122545288Y-113803113D01*
X122536650Y-113810688D01*
X122535852Y-113811388D01*
X122471447Y-113841264D01*
X122401115Y-113831577D01*
X122382316Y-113820346D01*
X122382148Y-113820613D01*
X122214111Y-113714590D01*
X122214112Y-113714590D01*
X122209228Y-113711509D01*
X122176802Y-113698572D01*
X122150093Y-113687916D01*
X122019321Y-113635743D01*
X122013653Y-113634616D01*
X122013651Y-113634615D01*
X121824454Y-113596982D01*
X121824450Y-113596982D01*
X121818786Y-113595855D01*
X121813011Y-113595779D01*
X121813007Y-113595779D01*
X121710466Y-113594437D01*
X121614340Y-113593178D01*
X121608643Y-113594157D01*
X121608642Y-113594157D01*
X121551191Y-113604029D01*
X121412830Y-113627804D01*
X121221005Y-113698572D01*
X121045288Y-113803113D01*
X120891564Y-113937925D01*
X120887992Y-113942456D01*
X120795018Y-114060393D01*
X120764982Y-114098493D01*
X120762294Y-114103602D01*
X120672470Y-114274329D01*
X120672468Y-114274334D01*
X120669781Y-114279441D01*
X120659618Y-114312172D01*
X120622444Y-114431891D01*
X120609149Y-114474707D01*
X120585117Y-114677753D01*
X120585495Y-114683519D01*
X120594600Y-114822439D01*
X120579096Y-114891722D01*
X120557965Y-114919775D01*
X120512145Y-114965595D01*
X120449833Y-114999621D01*
X120423050Y-115002500D01*
X119312500Y-115002500D01*
X119244379Y-114982498D01*
X119197886Y-114928842D01*
X119186500Y-114876500D01*
X119186500Y-114054866D01*
X119179745Y-113992684D01*
X119128615Y-113856295D01*
X119041261Y-113739739D01*
X118924705Y-113652385D01*
X118788316Y-113601255D01*
X118726134Y-113594500D01*
X117421866Y-113594500D01*
X117359684Y-113601255D01*
X117223295Y-113652385D01*
X117106739Y-113739739D01*
X117019385Y-113856295D01*
X116968255Y-113992684D01*
X116961500Y-114054866D01*
X116961500Y-114876500D01*
X116941498Y-114944621D01*
X116887842Y-114991114D01*
X116835500Y-115002500D01*
X116352950Y-115002500D01*
X116284829Y-114982498D01*
X116263855Y-114965595D01*
X116218444Y-114920184D01*
X116184418Y-114857872D01*
X116182843Y-114813010D01*
X116189202Y-114769150D01*
X116189202Y-114769148D01*
X116189735Y-114765473D01*
X116191266Y-114707000D01*
X116172557Y-114503394D01*
X116164467Y-114474707D01*
X116132251Y-114360478D01*
X116117058Y-114306608D01*
X116026626Y-114123230D01*
X115986346Y-114069288D01*
X115907743Y-113964027D01*
X115907743Y-113964026D01*
X115904290Y-113959403D01*
X115754148Y-113820613D01*
X115595137Y-113720285D01*
X115548198Y-113667018D01*
X115537509Y-113596831D01*
X115566463Y-113532007D01*
X115573277Y-113524628D01*
X118554253Y-110543652D01*
X118562539Y-110536112D01*
X118569018Y-110532000D01*
X118615644Y-110482348D01*
X118618398Y-110479507D01*
X118638135Y-110459770D01*
X118640615Y-110456573D01*
X118648320Y-110447551D01*
X118673159Y-110421100D01*
X118678586Y-110415321D01*
X118682405Y-110408375D01*
X118682407Y-110408372D01*
X118688348Y-110397566D01*
X118699199Y-110381047D01*
X118706758Y-110371301D01*
X118711614Y-110365041D01*
X118714759Y-110357772D01*
X118714762Y-110357768D01*
X118729174Y-110324463D01*
X118734391Y-110313813D01*
X118736413Y-110310134D01*
X132633500Y-110310134D01*
X132640255Y-110372316D01*
X132691385Y-110508705D01*
X132778739Y-110625261D01*
X132895295Y-110712615D01*
X133031684Y-110763745D01*
X133093866Y-110770500D01*
X134290134Y-110770500D01*
X134352316Y-110763745D01*
X134488705Y-110712615D01*
X134605261Y-110625261D01*
X134692615Y-110508705D01*
X134743745Y-110372316D01*
X134750500Y-110310134D01*
X134750500Y-109313866D01*
X134743745Y-109251684D01*
X134692615Y-109115295D01*
X134605261Y-108998739D01*
X134488705Y-108911385D01*
X134352316Y-108860255D01*
X134290134Y-108853500D01*
X133093866Y-108853500D01*
X133031684Y-108860255D01*
X132895295Y-108911385D01*
X132778739Y-108998739D01*
X132691385Y-109115295D01*
X132640255Y-109251684D01*
X132633500Y-109313866D01*
X132633500Y-110310134D01*
X118736413Y-110310134D01*
X118755695Y-110275060D01*
X118760733Y-110255437D01*
X118767137Y-110236734D01*
X118772033Y-110225420D01*
X118772033Y-110225419D01*
X118775181Y-110218145D01*
X118776420Y-110210322D01*
X118776423Y-110210312D01*
X118782099Y-110174476D01*
X118784505Y-110162856D01*
X118793528Y-110127711D01*
X118793528Y-110127710D01*
X118795500Y-110120030D01*
X118795500Y-110099776D01*
X118797051Y-110080065D01*
X118798980Y-110067886D01*
X118800220Y-110060057D01*
X118796059Y-110016038D01*
X118795500Y-110004181D01*
X118795500Y-108711289D01*
X118815502Y-108643168D01*
X118832405Y-108622194D01*
X120614143Y-106840457D01*
X120676455Y-106806431D01*
X120729431Y-106806305D01*
X120804214Y-106822201D01*
X120906500Y-106822201D01*
X120974621Y-106842203D01*
X121021114Y-106895859D01*
X121032500Y-106948201D01*
X121032500Y-107951500D01*
X121012498Y-108019621D01*
X120958842Y-108066114D01*
X120906500Y-108077500D01*
X120555866Y-108077500D01*
X120493684Y-108084255D01*
X120357295Y-108135385D01*
X120240739Y-108222739D01*
X120153385Y-108339295D01*
X120151605Y-108337961D01*
X120110077Y-108379396D01*
X120075064Y-108390280D01*
X120075439Y-108392047D01*
X119888638Y-108431753D01*
X119882608Y-108434438D01*
X119882607Y-108434438D01*
X119720204Y-108506744D01*
X119720202Y-108506745D01*
X119714174Y-108509429D01*
X119559673Y-108621681D01*
X119555252Y-108626591D01*
X119555251Y-108626592D01*
X119472121Y-108718918D01*
X119431886Y-108763603D01*
X119403161Y-108813356D01*
X119349977Y-108905474D01*
X119336399Y-108928991D01*
X119277384Y-109110619D01*
X119276694Y-109117180D01*
X119276694Y-109117182D01*
X119265971Y-109219207D01*
X119257422Y-109300547D01*
X119258112Y-109307112D01*
X119260055Y-109325594D01*
X119277384Y-109490475D01*
X119336399Y-109672103D01*
X119431886Y-109837491D01*
X119559673Y-109979413D01*
X119714174Y-110091665D01*
X119720202Y-110094349D01*
X119720204Y-110094350D01*
X119760074Y-110112101D01*
X119888638Y-110169341D01*
X119982038Y-110189194D01*
X120068982Y-110207675D01*
X120068987Y-110207675D01*
X120075439Y-110209047D01*
X120266413Y-110209047D01*
X120272865Y-110207675D01*
X120272870Y-110207675D01*
X120359813Y-110189194D01*
X120453214Y-110169341D01*
X120581778Y-110112101D01*
X120621648Y-110094350D01*
X120621650Y-110094349D01*
X120627678Y-110091665D01*
X120659474Y-110068564D01*
X120733535Y-110044500D01*
X121202134Y-110044500D01*
X121264316Y-110037745D01*
X121400705Y-109986615D01*
X121517261Y-109899261D01*
X121604615Y-109782705D01*
X121655745Y-109646316D01*
X121662500Y-109584134D01*
X121662500Y-109325594D01*
X121682502Y-109257473D01*
X121699405Y-109236499D01*
X121709683Y-109226221D01*
X121724717Y-109213380D01*
X121734694Y-109206131D01*
X121741107Y-109201472D01*
X121751318Y-109189129D01*
X121810151Y-109149389D01*
X121881129Y-109147766D01*
X121941717Y-109184773D01*
X121949230Y-109193876D01*
X121990739Y-109249261D01*
X122107295Y-109336615D01*
X122243684Y-109387745D01*
X122305866Y-109394500D01*
X122952134Y-109394500D01*
X123014316Y-109387745D01*
X123150705Y-109336615D01*
X123176187Y-109317517D01*
X123205362Y-109301196D01*
X123219617Y-109295552D01*
X123255387Y-109269564D01*
X123265307Y-109263048D01*
X123296535Y-109244580D01*
X123296538Y-109244578D01*
X123303362Y-109240542D01*
X123317683Y-109226221D01*
X123332717Y-109213380D01*
X123342694Y-109206131D01*
X123349107Y-109201472D01*
X123354158Y-109195367D01*
X123354163Y-109195362D01*
X123377299Y-109167396D01*
X123385287Y-109158618D01*
X124028232Y-108515673D01*
X124090544Y-108481647D01*
X124161359Y-108486712D01*
X124191388Y-108502832D01*
X124200468Y-108509429D01*
X124345248Y-108614618D01*
X124351276Y-108617302D01*
X124351278Y-108617303D01*
X124445154Y-108659099D01*
X124519712Y-108692294D01*
X124609076Y-108711289D01*
X124700056Y-108730628D01*
X124700061Y-108730628D01*
X124706513Y-108732000D01*
X124897487Y-108732000D01*
X124903939Y-108730628D01*
X124903944Y-108730628D01*
X124994924Y-108711289D01*
X125084288Y-108692294D01*
X125158846Y-108659099D01*
X125252722Y-108617303D01*
X125252724Y-108617302D01*
X125258752Y-108614618D01*
X125413253Y-108502366D01*
X125427348Y-108486712D01*
X125536621Y-108365352D01*
X125536622Y-108365351D01*
X125541040Y-108360444D01*
X125612409Y-108236830D01*
X125633223Y-108200779D01*
X125633224Y-108200778D01*
X125636527Y-108195056D01*
X125695542Y-108013428D01*
X125699044Y-107980114D01*
X125707538Y-107899288D01*
X125711948Y-107857329D01*
X125738961Y-107791673D01*
X125797182Y-107751043D01*
X125837258Y-107744500D01*
X126434411Y-107744500D01*
X126502532Y-107764502D01*
X126509975Y-107769674D01*
X126599295Y-107836615D01*
X126735684Y-107887745D01*
X126797866Y-107894500D01*
X128394134Y-107894500D01*
X128456316Y-107887745D01*
X128592705Y-107836615D01*
X128709261Y-107749261D01*
X128796615Y-107632705D01*
X128847745Y-107496316D01*
X128854500Y-107434134D01*
X128854500Y-107010134D01*
X131333500Y-107010134D01*
X131340255Y-107072316D01*
X131391385Y-107208705D01*
X131478739Y-107325261D01*
X131595295Y-107412615D01*
X131731684Y-107463745D01*
X131793866Y-107470500D01*
X133290134Y-107470500D01*
X133352316Y-107463745D01*
X133488705Y-107412615D01*
X133605261Y-107325261D01*
X133692615Y-107208705D01*
X133743745Y-107072316D01*
X133750500Y-107010134D01*
X133750500Y-106098134D01*
X138486500Y-106098134D01*
X138493255Y-106160316D01*
X138544385Y-106296705D01*
X138631739Y-106413261D01*
X138748295Y-106500615D01*
X138884684Y-106551745D01*
X138946866Y-106558500D01*
X140251134Y-106558500D01*
X140313316Y-106551745D01*
X140449705Y-106500615D01*
X140566261Y-106413261D01*
X140653615Y-106296705D01*
X140704745Y-106160316D01*
X140711500Y-106098134D01*
X140711500Y-104793866D01*
X140704745Y-104731684D01*
X140653615Y-104595295D01*
X140566261Y-104478739D01*
X140449705Y-104391385D01*
X140313316Y-104340255D01*
X140251134Y-104333500D01*
X138946866Y-104333500D01*
X138884684Y-104340255D01*
X138748295Y-104391385D01*
X138631739Y-104478739D01*
X138544385Y-104595295D01*
X138493255Y-104731684D01*
X138486500Y-104793866D01*
X138486500Y-106098134D01*
X133750500Y-106098134D01*
X133750500Y-106013866D01*
X133743745Y-105951684D01*
X133692615Y-105815295D01*
X133605261Y-105698739D01*
X133488705Y-105611385D01*
X133352316Y-105560255D01*
X133290134Y-105553500D01*
X131793866Y-105553500D01*
X131731684Y-105560255D01*
X131595295Y-105611385D01*
X131478739Y-105698739D01*
X131391385Y-105815295D01*
X131340255Y-105951684D01*
X131333500Y-106013866D01*
X131333500Y-107010134D01*
X128854500Y-107010134D01*
X128854500Y-106787866D01*
X128847745Y-106725684D01*
X128796615Y-106589295D01*
X128709261Y-106472739D01*
X128592705Y-106385385D01*
X128456316Y-106334255D01*
X128394134Y-106327500D01*
X126797866Y-106327500D01*
X126735684Y-106334255D01*
X126599295Y-106385385D01*
X126509976Y-106452326D01*
X126443470Y-106477174D01*
X126434411Y-106477500D01*
X125593267Y-106477500D01*
X125582084Y-106476973D01*
X125574591Y-106475298D01*
X125566665Y-106475547D01*
X125566664Y-106475547D01*
X125506514Y-106477438D01*
X125502555Y-106477500D01*
X125474644Y-106477500D01*
X125470710Y-106477997D01*
X125470709Y-106477997D01*
X125470644Y-106478005D01*
X125458807Y-106478938D01*
X125427588Y-106479919D01*
X125422529Y-106480078D01*
X125414610Y-106480327D01*
X125404917Y-106483143D01*
X125395158Y-106485978D01*
X125375806Y-106489986D01*
X125368735Y-106490880D01*
X125355703Y-106492526D01*
X125348334Y-106495443D01*
X125348332Y-106495444D01*
X125314597Y-106508800D01*
X125303369Y-106512645D01*
X125260907Y-106524982D01*
X125254085Y-106529016D01*
X125254079Y-106529019D01*
X125243468Y-106535294D01*
X125225718Y-106543990D01*
X125214256Y-106548528D01*
X125214251Y-106548531D01*
X125206883Y-106551448D01*
X125200468Y-106556109D01*
X125171125Y-106577427D01*
X125161207Y-106583943D01*
X125152158Y-106589295D01*
X125123137Y-106606458D01*
X125108813Y-106620782D01*
X125093781Y-106633621D01*
X125077393Y-106645528D01*
X125049212Y-106679593D01*
X125041222Y-106688373D01*
X124851500Y-106878095D01*
X124789188Y-106912121D01*
X124762405Y-106915000D01*
X124706513Y-106915000D01*
X124700061Y-106916372D01*
X124700056Y-106916372D01*
X124613112Y-106934853D01*
X124519712Y-106954706D01*
X124513685Y-106957389D01*
X124513677Y-106957392D01*
X124508748Y-106959587D01*
X124438381Y-106969021D01*
X124374084Y-106938914D01*
X124336271Y-106878825D01*
X124331500Y-106844480D01*
X124331500Y-103714089D01*
X124351502Y-103645968D01*
X124368405Y-103624994D01*
X124903247Y-103090152D01*
X124911537Y-103082608D01*
X124918018Y-103078495D01*
X124964659Y-103028827D01*
X124967413Y-103025986D01*
X124987135Y-103006264D01*
X124989612Y-103003071D01*
X124997317Y-102994050D01*
X125022159Y-102967595D01*
X125027586Y-102961816D01*
X125031407Y-102954866D01*
X125037346Y-102944063D01*
X125048202Y-102927536D01*
X125055757Y-102917797D01*
X125055758Y-102917795D01*
X125060614Y-102911535D01*
X125078174Y-102870955D01*
X125083391Y-102860307D01*
X125100875Y-102828504D01*
X125100876Y-102828502D01*
X125104695Y-102821555D01*
X125109733Y-102801932D01*
X125116137Y-102783229D01*
X125121033Y-102771915D01*
X125121033Y-102771914D01*
X125124181Y-102764640D01*
X125125420Y-102756817D01*
X125125423Y-102756807D01*
X125131099Y-102720971D01*
X125133505Y-102709351D01*
X125142528Y-102674206D01*
X125142528Y-102674205D01*
X125144500Y-102666525D01*
X125144500Y-102646271D01*
X125146051Y-102626560D01*
X125147980Y-102614381D01*
X125149220Y-102606552D01*
X125145059Y-102562533D01*
X125144500Y-102550676D01*
X125144500Y-102369744D01*
X125164502Y-102301623D01*
X125218158Y-102255130D01*
X125288432Y-102245026D01*
X125347198Y-102269778D01*
X125355920Y-102276470D01*
X125355928Y-102276477D01*
X125415104Y-102321884D01*
X125451125Y-102349524D01*
X125599150Y-102410838D01*
X125718115Y-102426500D01*
X125718120Y-102426500D01*
X125718129Y-102426501D01*
X125749812Y-102430672D01*
X125758000Y-102431750D01*
X125789693Y-102427578D01*
X125806136Y-102426500D01*
X126665500Y-102426500D01*
X126733621Y-102446502D01*
X126780114Y-102500158D01*
X126791500Y-102552500D01*
X126791500Y-103824134D01*
X126798255Y-103886316D01*
X126849385Y-104022705D01*
X126936739Y-104139261D01*
X127053295Y-104226615D01*
X127189684Y-104277745D01*
X127251866Y-104284500D01*
X128448134Y-104284500D01*
X128510316Y-104277745D01*
X128646705Y-104226615D01*
X128763261Y-104139261D01*
X128850615Y-104022705D01*
X128901745Y-103886316D01*
X128908500Y-103824134D01*
X128908500Y-102552500D01*
X128928502Y-102484379D01*
X128982158Y-102437886D01*
X129034500Y-102426500D01*
X129205500Y-102426500D01*
X129273621Y-102446502D01*
X129320114Y-102500158D01*
X129331500Y-102552500D01*
X129331500Y-103824134D01*
X129338255Y-103886316D01*
X129389385Y-104022705D01*
X129476739Y-104139261D01*
X129593295Y-104226615D01*
X129729684Y-104277745D01*
X129791866Y-104284500D01*
X130988134Y-104284500D01*
X131050316Y-104277745D01*
X131186705Y-104226615D01*
X131303261Y-104139261D01*
X131390615Y-104022705D01*
X131441745Y-103886316D01*
X131448500Y-103824134D01*
X131448500Y-102577239D01*
X131468502Y-102509118D01*
X131522158Y-102462625D01*
X131592432Y-102452521D01*
X131657012Y-102482015D01*
X131663595Y-102488144D01*
X132399685Y-103224234D01*
X132410552Y-103236625D01*
X132430013Y-103261987D01*
X132436563Y-103267013D01*
X132461921Y-103286471D01*
X132461937Y-103286485D01*
X132511305Y-103324366D01*
X132557124Y-103359524D01*
X132705149Y-103420838D01*
X132864000Y-103441751D01*
X132895699Y-103437578D01*
X132912144Y-103436500D01*
X139463864Y-103436500D01*
X139480307Y-103437578D01*
X139512000Y-103441750D01*
X139520189Y-103440672D01*
X139551874Y-103436501D01*
X139551884Y-103436500D01*
X139551885Y-103436500D01*
X139560894Y-103435314D01*
X139651457Y-103423391D01*
X139662664Y-103421916D01*
X139662666Y-103421915D01*
X139670851Y-103420838D01*
X139818876Y-103359524D01*
X139841585Y-103342099D01*
X139914069Y-103286480D01*
X139914075Y-103286474D01*
X139914079Y-103286471D01*
X139945987Y-103261987D01*
X139951017Y-103255432D01*
X139965452Y-103236621D01*
X139976319Y-103224230D01*
X140145943Y-103054606D01*
X140208255Y-103020580D01*
X140262846Y-103020808D01*
X140304501Y-103030234D01*
X140304507Y-103030235D01*
X140310138Y-103031509D01*
X140315909Y-103031736D01*
X140315911Y-103031736D01*
X140377252Y-103034146D01*
X140522891Y-103039869D01*
X140528600Y-103039041D01*
X140528604Y-103039041D01*
X140727890Y-103010145D01*
X140727894Y-103010144D01*
X140733605Y-103009316D01*
X140935223Y-102940876D01*
X141120993Y-102836840D01*
X141284693Y-102700693D01*
X141402681Y-102558827D01*
X141417149Y-102541431D01*
X141420840Y-102536993D01*
X141524876Y-102351223D01*
X141593316Y-102149605D01*
X141595871Y-102131988D01*
X141623337Y-101942561D01*
X141623337Y-101942559D01*
X141623869Y-101938891D01*
X141625463Y-101878000D01*
X141605981Y-101665976D01*
X141566426Y-101525724D01*
X141549754Y-101466611D01*
X141549753Y-101466609D01*
X141548186Y-101461052D01*
X141525569Y-101415188D01*
X141456570Y-101275273D01*
X141454015Y-101270092D01*
X141326622Y-101099491D01*
X141170271Y-100954963D01*
X140990201Y-100841347D01*
X140792441Y-100762449D01*
X140786781Y-100761323D01*
X140786777Y-100761322D01*
X140589282Y-100722038D01*
X140589280Y-100722038D01*
X140583615Y-100720911D01*
X140577840Y-100720835D01*
X140577836Y-100720835D01*
X140471161Y-100719439D01*
X140370716Y-100718124D01*
X140365019Y-100719103D01*
X140365018Y-100719103D01*
X140166564Y-100753203D01*
X140166561Y-100753204D01*
X140160874Y-100754181D01*
X139961116Y-100827875D01*
X139778134Y-100936739D01*
X139618054Y-101077125D01*
X139486238Y-101244333D01*
X139483549Y-101249444D01*
X139483547Y-101249447D01*
X139459657Y-101294854D01*
X139387100Y-101432762D01*
X139385386Y-101438283D01*
X139385384Y-101438287D01*
X139364523Y-101505470D01*
X139323961Y-101636102D01*
X139298936Y-101847544D01*
X139312861Y-102060006D01*
X139314283Y-102065606D01*
X139315187Y-102071312D01*
X139313156Y-102071634D01*
X139310867Y-102133448D01*
X139270299Y-102191713D01*
X139204671Y-102218796D01*
X139191367Y-102219500D01*
X136648769Y-102219500D01*
X136580648Y-102199498D01*
X136534155Y-102145842D01*
X136524073Y-102075420D01*
X136543337Y-101942564D01*
X136543338Y-101942554D01*
X136543869Y-101938891D01*
X136545463Y-101878000D01*
X136525981Y-101665976D01*
X136486426Y-101525724D01*
X136469754Y-101466611D01*
X136469753Y-101466609D01*
X136468186Y-101461052D01*
X136445569Y-101415188D01*
X136376570Y-101275273D01*
X136374015Y-101270092D01*
X136246622Y-101099491D01*
X136090271Y-100954963D01*
X135910201Y-100841347D01*
X135712441Y-100762449D01*
X135706781Y-100761323D01*
X135706777Y-100761322D01*
X135509282Y-100722038D01*
X135509280Y-100722038D01*
X135503615Y-100720911D01*
X135497840Y-100720835D01*
X135497836Y-100720835D01*
X135391161Y-100719439D01*
X135290716Y-100718124D01*
X135285019Y-100719103D01*
X135285018Y-100719103D01*
X135259429Y-100723500D01*
X135080874Y-100754181D01*
X135077529Y-100755415D01*
X135014290Y-100755415D01*
X135008851Y-100753162D01*
X135000670Y-100752085D01*
X135000666Y-100752084D01*
X134989458Y-100750609D01*
X134952337Y-100745722D01*
X134889885Y-100737500D01*
X134889882Y-100737500D01*
X134889874Y-100737499D01*
X134858189Y-100733328D01*
X134850000Y-100732250D01*
X134818307Y-100736422D01*
X134801864Y-100737500D01*
X127056554Y-100737500D01*
X126988433Y-100717498D01*
X126967459Y-100700595D01*
X126717405Y-100450541D01*
X126683379Y-100388229D01*
X126680500Y-100361446D01*
X126680500Y-97100136D01*
X126681578Y-97083690D01*
X126684672Y-97060188D01*
X126685750Y-97052000D01*
X126680500Y-97012122D01*
X126680500Y-97012115D01*
X126664838Y-96893150D01*
X126603524Y-96745125D01*
X126575254Y-96708283D01*
X126530477Y-96649928D01*
X126530474Y-96649925D01*
X126505987Y-96618013D01*
X126499432Y-96612983D01*
X126480621Y-96598548D01*
X126468230Y-96587681D01*
X126028315Y-96147766D01*
X126017448Y-96135375D01*
X126003013Y-96116563D01*
X125997987Y-96110013D01*
X125966075Y-96085526D01*
X125966072Y-96085523D01*
X125870876Y-96012476D01*
X125872394Y-96010498D01*
X125832096Y-95968232D01*
X125818663Y-95898517D01*
X125845053Y-95832608D01*
X125902887Y-95791428D01*
X125944092Y-95784500D01*
X134415864Y-95784500D01*
X134432307Y-95785578D01*
X134464000Y-95789750D01*
X134472189Y-95788672D01*
X134503874Y-95784501D01*
X134503884Y-95784500D01*
X134503885Y-95784500D01*
X134603457Y-95771391D01*
X134614664Y-95769916D01*
X134614666Y-95769915D01*
X134622851Y-95768838D01*
X134770876Y-95707524D01*
X134777429Y-95702496D01*
X134866069Y-95634480D01*
X134866075Y-95634474D01*
X134891434Y-95615015D01*
X134897987Y-95609987D01*
X134904690Y-95601252D01*
X134917452Y-95584621D01*
X134928319Y-95572230D01*
X135065943Y-95434606D01*
X135128255Y-95400580D01*
X135182846Y-95400808D01*
X135224501Y-95410234D01*
X135224507Y-95410235D01*
X135230138Y-95411509D01*
X135235909Y-95411736D01*
X135235911Y-95411736D01*
X135297252Y-95414146D01*
X135442891Y-95419869D01*
X135448600Y-95419041D01*
X135448604Y-95419041D01*
X135647890Y-95390145D01*
X135647894Y-95390144D01*
X135653605Y-95389316D01*
X135855223Y-95320876D01*
X136040993Y-95216840D01*
X136204693Y-95080693D01*
X136340840Y-94916993D01*
X136444876Y-94731223D01*
X136513316Y-94529605D01*
X136515928Y-94511595D01*
X136543337Y-94322561D01*
X136543337Y-94322559D01*
X136543869Y-94318891D01*
X136545463Y-94258000D01*
X136525981Y-94045976D01*
X136469215Y-93844701D01*
X136469975Y-93773709D01*
X136508996Y-93714398D01*
X136573889Y-93685598D01*
X136590484Y-93684500D01*
X138975761Y-93684500D01*
X139043882Y-93704502D01*
X139064856Y-93721405D01*
X139266595Y-93923144D01*
X139300621Y-93985456D01*
X139303500Y-94012239D01*
X139303500Y-94956134D01*
X139310255Y-95018316D01*
X139361385Y-95154705D01*
X139448739Y-95271261D01*
X139565295Y-95358615D01*
X139701684Y-95409745D01*
X139763866Y-95416500D01*
X141160134Y-95416500D01*
X141222316Y-95409745D01*
X141358705Y-95358615D01*
X141475261Y-95271261D01*
X141562615Y-95154705D01*
X141613745Y-95018316D01*
X141620500Y-94956134D01*
X141620500Y-93559866D01*
X141613745Y-93497684D01*
X141562615Y-93361295D01*
X141475261Y-93244739D01*
X141358705Y-93157385D01*
X141222316Y-93106255D01*
X141160134Y-93099500D01*
X140216239Y-93099500D01*
X140148118Y-93079498D01*
X140127144Y-93062595D01*
X139744315Y-92679766D01*
X139733448Y-92667375D01*
X139719013Y-92648563D01*
X139713987Y-92642013D01*
X139682075Y-92617526D01*
X139682069Y-92617520D01*
X139593429Y-92549504D01*
X139593427Y-92549503D01*
X139586876Y-92544476D01*
X139438851Y-92483162D01*
X139430664Y-92482084D01*
X139430663Y-92482084D01*
X139414832Y-92480000D01*
X139319885Y-92467500D01*
X139319876Y-92467499D01*
X139288190Y-92463328D01*
X139288189Y-92463328D01*
X139280000Y-92462250D01*
X139248307Y-92466422D01*
X139231864Y-92467500D01*
X127048144Y-92467500D01*
X127031698Y-92466422D01*
X127008188Y-92463327D01*
X127000000Y-92462249D01*
X126841149Y-92483162D01*
X126693124Y-92544476D01*
X126680693Y-92554015D01*
X126597937Y-92617515D01*
X126597921Y-92617529D01*
X126572566Y-92636984D01*
X126572563Y-92636987D01*
X126566013Y-92642013D01*
X126560983Y-92648568D01*
X126546548Y-92667379D01*
X126535681Y-92679770D01*
X126172856Y-93042595D01*
X126110544Y-93076621D01*
X126083761Y-93079500D01*
X124961162Y-93079500D01*
X124893041Y-93059498D01*
X124846548Y-93005842D01*
X124836444Y-92935568D01*
X124852042Y-92890501D01*
X124858590Y-92879159D01*
X124874527Y-92851556D01*
X124933542Y-92669928D01*
X124938177Y-92625834D01*
X124952814Y-92486565D01*
X124953504Y-92480000D01*
X124939002Y-92342020D01*
X124934232Y-92296635D01*
X124934232Y-92296633D01*
X124933542Y-92290072D01*
X124874527Y-92108444D01*
X124866115Y-92093873D01*
X124782341Y-91948774D01*
X124779040Y-91943056D01*
X124767926Y-91930712D01*
X124730864Y-91889551D01*
X124700146Y-91825544D01*
X124698500Y-91805241D01*
X124698500Y-91510056D01*
X124699059Y-91498200D01*
X124699059Y-91498197D01*
X124700788Y-91490463D01*
X124698562Y-91419631D01*
X124698500Y-91415673D01*
X124698500Y-91386568D01*
X124697944Y-91382168D01*
X124697012Y-91370330D01*
X124695811Y-91332094D01*
X124695562Y-91324169D01*
X124689580Y-91303579D01*
X124685570Y-91284216D01*
X124683875Y-91270796D01*
X124683875Y-91270795D01*
X124682882Y-91262936D01*
X124679966Y-91255571D01*
X124679965Y-91255567D01*
X124665876Y-91219982D01*
X124662031Y-91208753D01*
X124651356Y-91172010D01*
X124649145Y-91164399D01*
X124638230Y-91145943D01*
X124629531Y-91128187D01*
X124629182Y-91127307D01*
X124621635Y-91108244D01*
X124594480Y-91070868D01*
X124587965Y-91060949D01*
X124568492Y-91028023D01*
X124568489Y-91028019D01*
X124564452Y-91021193D01*
X124549291Y-91006032D01*
X124536449Y-90990997D01*
X124530493Y-90982799D01*
X124523841Y-90973643D01*
X124488248Y-90944198D01*
X124479467Y-90936208D01*
X124135651Y-90592391D01*
X124127663Y-90583612D01*
X124123416Y-90576920D01*
X124071741Y-90528394D01*
X124068900Y-90525640D01*
X124048333Y-90505073D01*
X124044826Y-90502353D01*
X124035804Y-90494647D01*
X124007913Y-90468456D01*
X124002133Y-90463028D01*
X123985800Y-90454049D01*
X123935741Y-90403704D01*
X123920500Y-90343634D01*
X123920500Y-90151866D01*
X123913745Y-90089684D01*
X123862615Y-89953295D01*
X123775261Y-89836739D01*
X123658705Y-89749385D01*
X123522316Y-89698255D01*
X123460134Y-89691500D01*
X122813866Y-89691500D01*
X122751684Y-89698255D01*
X122615295Y-89749385D01*
X122498739Y-89836739D01*
X122411385Y-89953295D01*
X122408233Y-89961703D01*
X122379982Y-90037062D01*
X122337340Y-90093826D01*
X122270779Y-90118526D01*
X122201430Y-90103319D01*
X122151312Y-90053033D01*
X122144018Y-90037062D01*
X122115767Y-89961703D01*
X122112615Y-89953295D01*
X122025261Y-89836739D01*
X121908705Y-89749385D01*
X121772316Y-89698255D01*
X121710134Y-89691500D01*
X121063866Y-89691500D01*
X121001684Y-89698255D01*
X120974404Y-89708482D01*
X120930174Y-89716500D01*
X120884767Y-89716500D01*
X120873584Y-89715973D01*
X120866091Y-89714298D01*
X120858165Y-89714547D01*
X120858164Y-89714547D01*
X120798014Y-89716438D01*
X120794055Y-89716500D01*
X120766144Y-89716500D01*
X120762210Y-89716997D01*
X120762209Y-89716997D01*
X120762144Y-89717005D01*
X120750307Y-89717938D01*
X120718490Y-89718938D01*
X120714029Y-89719078D01*
X120706110Y-89719327D01*
X120688454Y-89724456D01*
X120686658Y-89724978D01*
X120667306Y-89728986D01*
X120660235Y-89729880D01*
X120647203Y-89731526D01*
X120639834Y-89734443D01*
X120639832Y-89734444D01*
X120606097Y-89747800D01*
X120594869Y-89751645D01*
X120552407Y-89763982D01*
X120545584Y-89768017D01*
X120545582Y-89768018D01*
X120534972Y-89774293D01*
X120517224Y-89782988D01*
X120498383Y-89790448D01*
X120491967Y-89795110D01*
X120491966Y-89795110D01*
X120462613Y-89816436D01*
X120452693Y-89822952D01*
X120421465Y-89841420D01*
X120421462Y-89841422D01*
X120414638Y-89845458D01*
X120400317Y-89859779D01*
X120385284Y-89872619D01*
X120368893Y-89884528D01*
X120342516Y-89916413D01*
X120340712Y-89918593D01*
X120332722Y-89927374D01*
X120116499Y-90143596D01*
X120054187Y-90177621D01*
X120027404Y-90180500D01*
X118519267Y-90180500D01*
X118508084Y-90179973D01*
X118500591Y-90178298D01*
X118492665Y-90178547D01*
X118492664Y-90178547D01*
X118432501Y-90180438D01*
X118428543Y-90180500D01*
X118400644Y-90180500D01*
X118396654Y-90181004D01*
X118384820Y-90181936D01*
X118340611Y-90183326D01*
X118332997Y-90185538D01*
X118332992Y-90185539D01*
X118321159Y-90188977D01*
X118301796Y-90192988D01*
X118281703Y-90195526D01*
X118274336Y-90198443D01*
X118274331Y-90198444D01*
X118240592Y-90211802D01*
X118229365Y-90215646D01*
X118186907Y-90227982D01*
X118180081Y-90232019D01*
X118169472Y-90238293D01*
X118151724Y-90246988D01*
X118132883Y-90254448D01*
X118126467Y-90259110D01*
X118126466Y-90259110D01*
X118097113Y-90280436D01*
X118087193Y-90286952D01*
X118055965Y-90305420D01*
X118055962Y-90305422D01*
X118049138Y-90309458D01*
X118034817Y-90323779D01*
X118019784Y-90336619D01*
X118003393Y-90348528D01*
X117998342Y-90354634D01*
X117975202Y-90382605D01*
X117967212Y-90391384D01*
X116824000Y-91534595D01*
X116761688Y-91568621D01*
X116734905Y-91571500D01*
X116679013Y-91571500D01*
X116672561Y-91572872D01*
X116672556Y-91572872D01*
X116585613Y-91591353D01*
X116492212Y-91611206D01*
X116486182Y-91613891D01*
X116486181Y-91613891D01*
X116323778Y-91686197D01*
X116323776Y-91686198D01*
X116317748Y-91688882D01*
X116312407Y-91692762D01*
X116312406Y-91692763D01*
X116262343Y-91729136D01*
X116163247Y-91801134D01*
X116158826Y-91806044D01*
X116158825Y-91806045D01*
X116046575Y-91930712D01*
X116035460Y-91943056D01*
X116032159Y-91948774D01*
X115948386Y-92093873D01*
X115939973Y-92108444D01*
X115880958Y-92290072D01*
X115880268Y-92296633D01*
X115880268Y-92296635D01*
X115875498Y-92342020D01*
X115860996Y-92480000D01*
X115861686Y-92486565D01*
X115876324Y-92625834D01*
X115880958Y-92669928D01*
X115939973Y-92851556D01*
X115943276Y-92857278D01*
X115943277Y-92857279D01*
X115965939Y-92896531D01*
X116035460Y-93016944D01*
X116039878Y-93021851D01*
X116039879Y-93021852D01*
X116127100Y-93118721D01*
X116163247Y-93158866D01*
X116168589Y-93162747D01*
X116168591Y-93162749D01*
X116188885Y-93177493D01*
X116233335Y-93209788D01*
X116276688Y-93266009D01*
X116282763Y-93336745D01*
X116252911Y-93396031D01*
X116188960Y-93467056D01*
X116185659Y-93472774D01*
X116116291Y-93592923D01*
X116093473Y-93632444D01*
X116034458Y-93814072D01*
X116033768Y-93820633D01*
X116033768Y-93820635D01*
X116023682Y-93916603D01*
X115996669Y-93982260D01*
X115938448Y-94022890D01*
X115867503Y-94025593D01*
X115809277Y-93992528D01*
X115199515Y-93382766D01*
X115188648Y-93370375D01*
X115174213Y-93351563D01*
X115169187Y-93345013D01*
X115137275Y-93320526D01*
X115137272Y-93320523D01*
X115072887Y-93271118D01*
X115048629Y-93252504D01*
X115048627Y-93252503D01*
X115042076Y-93247476D01*
X114894051Y-93186162D01*
X114885864Y-93185084D01*
X114885863Y-93185084D01*
X114874658Y-93183609D01*
X114843462Y-93179502D01*
X114775085Y-93170500D01*
X114775082Y-93170500D01*
X114775074Y-93170499D01*
X114743389Y-93166328D01*
X114735200Y-93165250D01*
X114703507Y-93169422D01*
X114687064Y-93170500D01*
X108008749Y-93170500D01*
X107940628Y-93150498D01*
X107915113Y-93128810D01*
X107913384Y-93126889D01*
X107799253Y-93000134D01*
X107660898Y-92899613D01*
X107650094Y-92891763D01*
X107650093Y-92891762D01*
X107644752Y-92887882D01*
X107638724Y-92885198D01*
X107638722Y-92885197D01*
X107476319Y-92812891D01*
X107476318Y-92812891D01*
X107470288Y-92810206D01*
X107444079Y-92804635D01*
X107289944Y-92771872D01*
X107289939Y-92771872D01*
X107283487Y-92770500D01*
X107092513Y-92770500D01*
X107086061Y-92771872D01*
X107086056Y-92771872D01*
X106931921Y-92804635D01*
X106905712Y-92810206D01*
X106899682Y-92812891D01*
X106899681Y-92812891D01*
X106737278Y-92885197D01*
X106737276Y-92885198D01*
X106731248Y-92887882D01*
X106725907Y-92891762D01*
X106725906Y-92891763D01*
X106715102Y-92899613D01*
X106576747Y-93000134D01*
X106572326Y-93005044D01*
X106572325Y-93005045D01*
X106454584Y-93135810D01*
X106394138Y-93173050D01*
X106360948Y-93177500D01*
X106342324Y-93177500D01*
X106274203Y-93157498D01*
X106241366Y-93126889D01*
X106178743Y-93043027D01*
X106178743Y-93043026D01*
X106175290Y-93038403D01*
X106025148Y-92899613D01*
X105852228Y-92790509D01*
X105819802Y-92777572D01*
X105793093Y-92766916D01*
X105662321Y-92714743D01*
X105656653Y-92713616D01*
X105656651Y-92713615D01*
X105467454Y-92675982D01*
X105467450Y-92675982D01*
X105461786Y-92674855D01*
X105456011Y-92674779D01*
X105456007Y-92674779D01*
X105353466Y-92673437D01*
X105257340Y-92672178D01*
X105251643Y-92673157D01*
X105251642Y-92673157D01*
X105213157Y-92679770D01*
X105055830Y-92706804D01*
X104864005Y-92777572D01*
X104859044Y-92780524D01*
X104859043Y-92780524D01*
X104739650Y-92851556D01*
X104688288Y-92882113D01*
X104534564Y-93016925D01*
X104530992Y-93021456D01*
X104413496Y-93170499D01*
X104407982Y-93177493D01*
X104405294Y-93182602D01*
X104315470Y-93353329D01*
X104315468Y-93353334D01*
X104312781Y-93358441D01*
X104294269Y-93418058D01*
X104269545Y-93497684D01*
X104252149Y-93553707D01*
X104228117Y-93756753D01*
X104241489Y-93960779D01*
X104291819Y-94158951D01*
X104294236Y-94164194D01*
X104355726Y-94297578D01*
X104377419Y-94344633D01*
X104451379Y-94449283D01*
X104461605Y-94463753D01*
X104484586Y-94530927D01*
X104467602Y-94599862D01*
X104457658Y-94614479D01*
X104411556Y-94672959D01*
X104407982Y-94677493D01*
X104405294Y-94682602D01*
X104315470Y-94853329D01*
X104315468Y-94853334D01*
X104312781Y-94858441D01*
X104311067Y-94863962D01*
X104260841Y-95025715D01*
X104252149Y-95053707D01*
X104228117Y-95256753D01*
X104241489Y-95460779D01*
X104242911Y-95466378D01*
X104280661Y-95615015D01*
X104291819Y-95658951D01*
X104377419Y-95844633D01*
X104495424Y-96011606D01*
X104525540Y-96040944D01*
X104572175Y-96086373D01*
X104641882Y-96154279D01*
X104646678Y-96157484D01*
X104646681Y-96157486D01*
X104690477Y-96186749D01*
X104811887Y-96267872D01*
X104817190Y-96270150D01*
X104817193Y-96270152D01*
X104902198Y-96306673D01*
X104999746Y-96348583D01*
X105094876Y-96370109D01*
X105193532Y-96392433D01*
X105193535Y-96392433D01*
X105199168Y-96393708D01*
X105204939Y-96393935D01*
X105204941Y-96393935D01*
X105267646Y-96396398D01*
X105403473Y-96401735D01*
X105522344Y-96384500D01*
X105600099Y-96373226D01*
X105600103Y-96373225D01*
X105605821Y-96372396D01*
X105611293Y-96370538D01*
X105611295Y-96370538D01*
X105793965Y-96308529D01*
X105799433Y-96306673D01*
X105977826Y-96206768D01*
X106135026Y-96076026D01*
X106216682Y-95977845D01*
X106275619Y-95938263D01*
X106346601Y-95936827D01*
X106407091Y-95973994D01*
X106422672Y-95995413D01*
X106448960Y-96040944D01*
X106453378Y-96045851D01*
X106453379Y-96045852D01*
X106545143Y-96147766D01*
X106576747Y-96182866D01*
X106731248Y-96295118D01*
X106737276Y-96297802D01*
X106737278Y-96297803D01*
X106899681Y-96370109D01*
X106905712Y-96372794D01*
X106998106Y-96392433D01*
X107086056Y-96411128D01*
X107086061Y-96411128D01*
X107092513Y-96412500D01*
X107283487Y-96412500D01*
X107289939Y-96411128D01*
X107289944Y-96411128D01*
X107377894Y-96392433D01*
X107470288Y-96372794D01*
X107476319Y-96370109D01*
X107638722Y-96297803D01*
X107638724Y-96297802D01*
X107644752Y-96295118D01*
X107686671Y-96264662D01*
X107793909Y-96186749D01*
X107793911Y-96186747D01*
X107799253Y-96182866D01*
X107870639Y-96103583D01*
X107916058Y-96071485D01*
X107995244Y-96038686D01*
X107995249Y-96038683D01*
X108002876Y-96035524D01*
X108028799Y-96015633D01*
X108098072Y-95962477D01*
X108098075Y-95962474D01*
X108123434Y-95943015D01*
X108129987Y-95937987D01*
X108135924Y-95930250D01*
X108149452Y-95912621D01*
X108160319Y-95900230D01*
X108338405Y-95722144D01*
X108400717Y-95688118D01*
X108471532Y-95693183D01*
X108528368Y-95735730D01*
X108553179Y-95802250D01*
X108553500Y-95811239D01*
X108553500Y-96574134D01*
X108560255Y-96636316D01*
X108611385Y-96772705D01*
X108698739Y-96889261D01*
X108815295Y-96976615D01*
X108951684Y-97027745D01*
X109013866Y-97034500D01*
X109705540Y-97034500D01*
X109773661Y-97054502D01*
X109820154Y-97108158D01*
X109830755Y-97174545D01*
X109823481Y-97239395D01*
X109818719Y-97281851D01*
X109819235Y-97287995D01*
X109833216Y-97454491D01*
X109835268Y-97478934D01*
X109844559Y-97511336D01*
X109887639Y-97661572D01*
X109889783Y-97669050D01*
X109892602Y-97674535D01*
X109973864Y-97832652D01*
X109980187Y-97844956D01*
X109984016Y-97849787D01*
X109985839Y-97852088D01*
X109986414Y-97853509D01*
X109987353Y-97854966D01*
X109987076Y-97855144D01*
X110012474Y-97917898D01*
X109999301Y-97987662D01*
X109995846Y-97993474D01*
X109900567Y-98166787D01*
X109898706Y-98172654D01*
X109898705Y-98172656D01*
X109850119Y-98325819D01*
X109840765Y-98355306D01*
X109818719Y-98551851D01*
X109819235Y-98557995D01*
X109831138Y-98699755D01*
X109816906Y-98769311D01*
X109767329Y-98820130D01*
X109692410Y-98835608D01*
X109569075Y-98822645D01*
X109486576Y-98830153D01*
X109378251Y-98840011D01*
X109378248Y-98840012D01*
X109372112Y-98840570D01*
X109366206Y-98842308D01*
X109366202Y-98842309D01*
X109261076Y-98873249D01*
X109182381Y-98896410D01*
X109176923Y-98899263D01*
X109176919Y-98899265D01*
X109109107Y-98934717D01*
X109007110Y-98988040D01*
X108852975Y-99111968D01*
X108725846Y-99263474D01*
X108722879Y-99268872D01*
X108722875Y-99268877D01*
X108651818Y-99398131D01*
X108630567Y-99436787D01*
X108628706Y-99442654D01*
X108628705Y-99442656D01*
X108572627Y-99619436D01*
X108570765Y-99625306D01*
X108548719Y-99821851D01*
X108549235Y-99827995D01*
X108564680Y-100011928D01*
X108565268Y-100018934D01*
X108578860Y-100066335D01*
X108604866Y-100157027D01*
X108619783Y-100209050D01*
X108710187Y-100384956D01*
X108833035Y-100539953D01*
X108983650Y-100668136D01*
X109156294Y-100764624D01*
X109344392Y-100825740D01*
X109540777Y-100849158D01*
X109546912Y-100848686D01*
X109546914Y-100848686D01*
X109696739Y-100837157D01*
X109766194Y-100851874D01*
X109816666Y-100901805D01*
X109831621Y-100976830D01*
X109818719Y-101091851D01*
X109819235Y-101097995D01*
X109833488Y-101267732D01*
X109835268Y-101288934D01*
X109849272Y-101337772D01*
X109848822Y-101408764D01*
X109810060Y-101468245D01*
X109745294Y-101497329D01*
X109728153Y-101498500D01*
X106346740Y-101498500D01*
X106278619Y-101478498D01*
X106233734Y-101428228D01*
X106172181Y-101303411D01*
X106169626Y-101298230D01*
X106099560Y-101204400D01*
X106050743Y-101139027D01*
X106050743Y-101139026D01*
X106047290Y-101134403D01*
X105897148Y-100995613D01*
X105724228Y-100886509D01*
X105691802Y-100873572D01*
X105651645Y-100857551D01*
X105534321Y-100810743D01*
X105528653Y-100809616D01*
X105528651Y-100809615D01*
X105339454Y-100771982D01*
X105339450Y-100771982D01*
X105333786Y-100770855D01*
X105328011Y-100770779D01*
X105328007Y-100770779D01*
X105225466Y-100769437D01*
X105129340Y-100768178D01*
X105123643Y-100769157D01*
X105123642Y-100769157D01*
X105107202Y-100771982D01*
X104927830Y-100802804D01*
X104736005Y-100873572D01*
X104731044Y-100876524D01*
X104731043Y-100876524D01*
X104580923Y-100965836D01*
X104512153Y-100983476D01*
X104444763Y-100961135D01*
X104400149Y-100905908D01*
X104390500Y-100857551D01*
X104390500Y-100365372D01*
X104410502Y-100297251D01*
X104427404Y-100276277D01*
X105268275Y-99435405D01*
X105330588Y-99401380D01*
X105357371Y-99398500D01*
X105997134Y-99398500D01*
X106059316Y-99391745D01*
X106195705Y-99340615D01*
X106312261Y-99253261D01*
X106399615Y-99136705D01*
X106450745Y-99000316D01*
X106457500Y-98938134D01*
X106457500Y-97633866D01*
X106450745Y-97571684D01*
X106399615Y-97435295D01*
X106312261Y-97318739D01*
X106195705Y-97231385D01*
X106059316Y-97180255D01*
X105997134Y-97173500D01*
X104692866Y-97173500D01*
X104630684Y-97180255D01*
X104494295Y-97231385D01*
X104377739Y-97318739D01*
X104290385Y-97435295D01*
X104239255Y-97571684D01*
X104232500Y-97633866D01*
X104232500Y-98273629D01*
X104212498Y-98341750D01*
X104195595Y-98362724D01*
X103143089Y-99415230D01*
X103128677Y-99427616D01*
X103117082Y-99436149D01*
X103117077Y-99436154D01*
X103111182Y-99440492D01*
X103106443Y-99446070D01*
X103106440Y-99446073D01*
X103076965Y-99480768D01*
X103070035Y-99488284D01*
X103064340Y-99493979D01*
X103062060Y-99496861D01*
X103046719Y-99516251D01*
X103043928Y-99519655D01*
X103001409Y-99569703D01*
X102996667Y-99575285D01*
X102993339Y-99581801D01*
X102989972Y-99586850D01*
X102986805Y-99591979D01*
X102982266Y-99597716D01*
X102951345Y-99663875D01*
X102949442Y-99667769D01*
X102916231Y-99732808D01*
X102914492Y-99739916D01*
X102912393Y-99745559D01*
X102910476Y-99751322D01*
X102907378Y-99757950D01*
X102894640Y-99819193D01*
X102892514Y-99829412D01*
X102891544Y-99833696D01*
X102874192Y-99904610D01*
X102873500Y-99915764D01*
X102873464Y-99915762D01*
X102873225Y-99919755D01*
X102872851Y-99923947D01*
X102871360Y-99931115D01*
X102871558Y-99938432D01*
X102873454Y-100008521D01*
X102873500Y-100011928D01*
X102873500Y-104729930D01*
X102872067Y-104748880D01*
X102868801Y-104770349D01*
X100508500Y-104770349D01*
X100508500Y-90132703D01*
X108890743Y-90132703D01*
X108891302Y-90136947D01*
X108891302Y-90136951D01*
X108903287Y-90227982D01*
X108928268Y-90417734D01*
X109004129Y-90695036D01*
X109005813Y-90698984D01*
X109108791Y-90940410D01*
X109116923Y-90959476D01*
X109158838Y-91029511D01*
X109217895Y-91128187D01*
X109264561Y-91206161D01*
X109444313Y-91430528D01*
X109652851Y-91628423D01*
X109886317Y-91796186D01*
X109890112Y-91798195D01*
X109890113Y-91798196D01*
X109911869Y-91809715D01*
X110140392Y-91930712D01*
X110410373Y-92029511D01*
X110691264Y-92090755D01*
X110719841Y-92093004D01*
X110914282Y-92108307D01*
X110914291Y-92108307D01*
X110916739Y-92108500D01*
X111072271Y-92108500D01*
X111074407Y-92108354D01*
X111074418Y-92108354D01*
X111282548Y-92094165D01*
X111282554Y-92094164D01*
X111286825Y-92093873D01*
X111291020Y-92093004D01*
X111291022Y-92093004D01*
X111427583Y-92064724D01*
X111568342Y-92035574D01*
X111839343Y-91939607D01*
X112094812Y-91807750D01*
X112098313Y-91805289D01*
X112098317Y-91805287D01*
X112316100Y-91652226D01*
X112330023Y-91642441D01*
X112472486Y-91510056D01*
X112537479Y-91449661D01*
X112537481Y-91449658D01*
X112540622Y-91446740D01*
X112722713Y-91224268D01*
X112872927Y-90979142D01*
X112889654Y-90941038D01*
X112949244Y-90805287D01*
X112988483Y-90715898D01*
X113067244Y-90439406D01*
X113103913Y-90181750D01*
X113107146Y-90159036D01*
X113107146Y-90159034D01*
X113107751Y-90154784D01*
X113107785Y-90148469D01*
X113109235Y-89871583D01*
X113109235Y-89871576D01*
X113109257Y-89867297D01*
X113099754Y-89795110D01*
X113091048Y-89728986D01*
X113071732Y-89582266D01*
X112995871Y-89304964D01*
X112933627Y-89159036D01*
X112922395Y-89132703D01*
X138890743Y-89132703D01*
X138928268Y-89417734D01*
X139004129Y-89695036D01*
X139005813Y-89698984D01*
X139114287Y-89953295D01*
X139116923Y-89959476D01*
X139128693Y-89979142D01*
X139257602Y-90194533D01*
X139264561Y-90206161D01*
X139444313Y-90430528D01*
X139522867Y-90505073D01*
X139587085Y-90566013D01*
X139652851Y-90628423D01*
X139886317Y-90796186D01*
X139890112Y-90798195D01*
X139890113Y-90798196D01*
X139911869Y-90809715D01*
X140140392Y-90930712D01*
X140261983Y-90975208D01*
X140406307Y-91028023D01*
X140410373Y-91029511D01*
X140691264Y-91090755D01*
X140719841Y-91093004D01*
X140914282Y-91108307D01*
X140914291Y-91108307D01*
X140916739Y-91108500D01*
X141072271Y-91108500D01*
X141074407Y-91108354D01*
X141074418Y-91108354D01*
X141282548Y-91094165D01*
X141282554Y-91094164D01*
X141286825Y-91093873D01*
X141291020Y-91093004D01*
X141291022Y-91093004D01*
X141445810Y-91060949D01*
X141568342Y-91035574D01*
X141839343Y-90939607D01*
X142094812Y-90807750D01*
X142098313Y-90805289D01*
X142098317Y-90805287D01*
X142283696Y-90675000D01*
X142330023Y-90642441D01*
X142474827Y-90507881D01*
X142537479Y-90449661D01*
X142537481Y-90449658D01*
X142540622Y-90446740D01*
X142722713Y-90224268D01*
X142872927Y-89979142D01*
X142887428Y-89946109D01*
X142986757Y-89719830D01*
X142988483Y-89715898D01*
X143067244Y-89439406D01*
X143107751Y-89154784D01*
X143107845Y-89136951D01*
X143109235Y-88871583D01*
X143109235Y-88871576D01*
X143109257Y-88867297D01*
X143099146Y-88790492D01*
X143072292Y-88586522D01*
X143071732Y-88582266D01*
X142995871Y-88304964D01*
X142894717Y-88067813D01*
X142884763Y-88044476D01*
X142884761Y-88044472D01*
X142883077Y-88040524D01*
X142802467Y-87905835D01*
X142737643Y-87797521D01*
X142737640Y-87797517D01*
X142735439Y-87793839D01*
X142555687Y-87569472D01*
X142347149Y-87371577D01*
X142113683Y-87203814D01*
X142091843Y-87192250D01*
X142068654Y-87179972D01*
X141859608Y-87069288D01*
X141589627Y-86970489D01*
X141308736Y-86909245D01*
X141277685Y-86906801D01*
X141085718Y-86891693D01*
X141085709Y-86891693D01*
X141083261Y-86891500D01*
X140927729Y-86891500D01*
X140925593Y-86891646D01*
X140925582Y-86891646D01*
X140717452Y-86905835D01*
X140717446Y-86905836D01*
X140713175Y-86906127D01*
X140708980Y-86906996D01*
X140708978Y-86906996D01*
X140572417Y-86935276D01*
X140431658Y-86964426D01*
X140160657Y-87060393D01*
X139905188Y-87192250D01*
X139901687Y-87194711D01*
X139901683Y-87194713D01*
X139891594Y-87201804D01*
X139669977Y-87357559D01*
X139459378Y-87553260D01*
X139277287Y-87775732D01*
X139127073Y-88020858D01*
X139125347Y-88024791D01*
X139125346Y-88024792D01*
X139109718Y-88060393D01*
X139011517Y-88284102D01*
X138932756Y-88560594D01*
X138892249Y-88845216D01*
X138892227Y-88849505D01*
X138892226Y-88849512D01*
X138891205Y-89044476D01*
X138890743Y-89132703D01*
X112922395Y-89132703D01*
X112884763Y-89044476D01*
X112884761Y-89044472D01*
X112883077Y-89040524D01*
X112779403Y-88867297D01*
X112737643Y-88797521D01*
X112737640Y-88797517D01*
X112735439Y-88793839D01*
X112555687Y-88569472D01*
X112347149Y-88371577D01*
X112113683Y-88203814D01*
X112091843Y-88192250D01*
X112068654Y-88179972D01*
X111859608Y-88069288D01*
X111589627Y-87970489D01*
X111308736Y-87909245D01*
X111277685Y-87906801D01*
X111085718Y-87891693D01*
X111085709Y-87891693D01*
X111083261Y-87891500D01*
X110927729Y-87891500D01*
X110925593Y-87891646D01*
X110925582Y-87891646D01*
X110717452Y-87905835D01*
X110717446Y-87905836D01*
X110713175Y-87906127D01*
X110708980Y-87906996D01*
X110708978Y-87906996D01*
X110572417Y-87935276D01*
X110431658Y-87964426D01*
X110160657Y-88060393D01*
X109905188Y-88192250D01*
X109901687Y-88194711D01*
X109901683Y-88194713D01*
X109891594Y-88201804D01*
X109669977Y-88357559D01*
X109459378Y-88553260D01*
X109277287Y-88775732D01*
X109127073Y-89020858D01*
X109011517Y-89284102D01*
X108932756Y-89560594D01*
X108908791Y-89728986D01*
X108895418Y-89822952D01*
X108892249Y-89845216D01*
X108892227Y-89849505D01*
X108892226Y-89849512D01*
X108890817Y-90118526D01*
X108890743Y-90132703D01*
X100508500Y-90132703D01*
X100508500Y-86053250D01*
X100510246Y-86032345D01*
X100512770Y-86017344D01*
X100512770Y-86017341D01*
X100513576Y-86012552D01*
X100513729Y-86000000D01*
X100513040Y-85995188D01*
X100512723Y-85990327D01*
X100513008Y-85990308D01*
X100512607Y-85963549D01*
X100519234Y-85904736D01*
X100525513Y-85877229D01*
X100552485Y-85800147D01*
X100564727Y-85774726D01*
X100608178Y-85705574D01*
X100625770Y-85683515D01*
X100683515Y-85625770D01*
X100705574Y-85608178D01*
X100774726Y-85564727D01*
X100800147Y-85552485D01*
X100877228Y-85525513D01*
X100904736Y-85519234D01*
X100960226Y-85512982D01*
X100975868Y-85513077D01*
X100975879Y-85512200D01*
X100984851Y-85512310D01*
X100993724Y-85513691D01*
X101002626Y-85512527D01*
X101002628Y-85512527D01*
X101017951Y-85510523D01*
X101025286Y-85509564D01*
X101041621Y-85508500D01*
X143950633Y-85508500D01*
X143970018Y-85510000D01*
G37*
%TD.AperFunction*%
%TA.AperFunction,Conductor*%
G36*
X115403531Y-100023788D02*
G01*
X115460367Y-100066335D01*
X115485178Y-100132855D01*
X115485111Y-100151724D01*
X115484694Y-100157027D01*
X115484500Y-100159498D01*
X115484500Y-100911405D01*
X115464498Y-100979526D01*
X115447595Y-101000500D01*
X115366247Y-101081848D01*
X115357961Y-101089388D01*
X115351482Y-101093500D01*
X115346057Y-101099277D01*
X115304857Y-101143151D01*
X115302102Y-101145993D01*
X115282365Y-101165730D01*
X115279885Y-101168927D01*
X115272182Y-101177947D01*
X115241914Y-101210179D01*
X115238095Y-101217125D01*
X115238093Y-101217128D01*
X115232152Y-101227934D01*
X115221301Y-101244453D01*
X115208886Y-101260459D01*
X115205741Y-101267728D01*
X115205738Y-101267732D01*
X115191326Y-101301037D01*
X115186109Y-101311687D01*
X115164805Y-101350440D01*
X115162834Y-101358115D01*
X115162834Y-101358116D01*
X115159767Y-101370062D01*
X115153363Y-101388766D01*
X115145319Y-101407355D01*
X115144080Y-101415178D01*
X115144077Y-101415188D01*
X115138401Y-101451024D01*
X115135995Y-101462644D01*
X115125000Y-101505470D01*
X115125000Y-101525724D01*
X115123449Y-101545434D01*
X115120280Y-101565443D01*
X115121026Y-101573335D01*
X115124441Y-101609461D01*
X115125000Y-101621319D01*
X115125000Y-102355877D01*
X115104998Y-102423998D01*
X115097229Y-102433638D01*
X115097779Y-102434072D01*
X115093242Y-102439817D01*
X115088071Y-102444997D01*
X115084231Y-102451227D01*
X115084230Y-102451228D01*
X115006556Y-102577239D01*
X114996791Y-102593080D01*
X114942026Y-102758191D01*
X114941326Y-102765027D01*
X114941325Y-102765030D01*
X114939461Y-102783229D01*
X114931500Y-102860928D01*
X114931500Y-103069129D01*
X114911498Y-103137250D01*
X114894595Y-103158224D01*
X110644224Y-107408595D01*
X110581912Y-107442621D01*
X110555129Y-107445500D01*
X106860289Y-107445500D01*
X106792168Y-107425498D01*
X106771194Y-107408595D01*
X106366405Y-107003806D01*
X106332379Y-106941494D01*
X106329500Y-106914711D01*
X106329500Y-105729866D01*
X106322745Y-105667684D01*
X106271615Y-105531295D01*
X106184261Y-105414739D01*
X106067705Y-105327385D01*
X105931316Y-105276255D01*
X105869134Y-105269500D01*
X105229371Y-105269500D01*
X105161250Y-105249498D01*
X105140276Y-105232595D01*
X104427405Y-104519724D01*
X104393379Y-104457412D01*
X104390500Y-104430629D01*
X104390500Y-104403567D01*
X104410502Y-104335446D01*
X104464158Y-104288953D01*
X104534432Y-104278849D01*
X104586501Y-104298802D01*
X104679078Y-104360659D01*
X104683887Y-104363872D01*
X104689190Y-104366150D01*
X104689193Y-104366152D01*
X104774198Y-104402673D01*
X104871746Y-104444583D01*
X104928442Y-104457412D01*
X105065532Y-104488433D01*
X105065535Y-104488433D01*
X105071168Y-104489708D01*
X105076939Y-104489935D01*
X105076941Y-104489935D01*
X105139646Y-104492398D01*
X105275473Y-104497735D01*
X105394344Y-104480500D01*
X105472099Y-104469226D01*
X105472103Y-104469225D01*
X105477821Y-104468396D01*
X105483293Y-104466538D01*
X105483295Y-104466538D01*
X105665965Y-104404529D01*
X105671433Y-104402673D01*
X105849826Y-104302768D01*
X106007026Y-104172026D01*
X106137768Y-104014826D01*
X106232380Y-103845884D01*
X106234850Y-103841474D01*
X106234850Y-103841473D01*
X106237673Y-103836433D01*
X106282299Y-103704970D01*
X106323136Y-103646894D01*
X106388889Y-103620116D01*
X106401612Y-103619472D01*
X110405776Y-103619472D01*
X110473897Y-103639474D01*
X110479834Y-103643534D01*
X110483184Y-103645968D01*
X110588915Y-103722786D01*
X110629248Y-103752090D01*
X110635276Y-103754774D01*
X110635278Y-103754775D01*
X110791062Y-103824134D01*
X110803712Y-103829766D01*
X110879541Y-103845884D01*
X110984056Y-103868100D01*
X110984061Y-103868100D01*
X110990513Y-103869472D01*
X111181487Y-103869472D01*
X111187939Y-103868100D01*
X111187944Y-103868100D01*
X111292459Y-103845884D01*
X111368288Y-103829766D01*
X111380938Y-103824134D01*
X111536722Y-103754775D01*
X111536724Y-103754774D01*
X111542752Y-103752090D01*
X111697253Y-103639838D01*
X111825040Y-103497916D01*
X111897964Y-103371609D01*
X111917223Y-103338251D01*
X111917224Y-103338250D01*
X111920527Y-103332528D01*
X111979542Y-103150900D01*
X111986584Y-103083904D01*
X111998814Y-102967537D01*
X111999504Y-102960972D01*
X111988762Y-102858771D01*
X112001534Y-102788935D01*
X112050036Y-102737088D01*
X112078920Y-102724605D01*
X112080515Y-102724142D01*
X112101593Y-102718018D01*
X112108412Y-102713985D01*
X112108417Y-102713983D01*
X112119028Y-102707707D01*
X112136776Y-102699012D01*
X112155617Y-102691552D01*
X112191387Y-102665564D01*
X112201307Y-102659048D01*
X112232535Y-102640580D01*
X112232538Y-102640578D01*
X112239362Y-102636542D01*
X112253683Y-102622221D01*
X112268717Y-102609380D01*
X112285107Y-102597472D01*
X112313298Y-102563395D01*
X112321288Y-102554616D01*
X112325023Y-102550881D01*
X112387335Y-102516855D01*
X112440314Y-102516729D01*
X112500201Y-102529458D01*
X112514513Y-102532500D01*
X112705487Y-102532500D01*
X112711939Y-102531128D01*
X112711944Y-102531128D01*
X112815490Y-102509118D01*
X112892288Y-102492794D01*
X112909468Y-102485145D01*
X113060722Y-102417803D01*
X113060724Y-102417802D01*
X113066752Y-102415118D01*
X113072093Y-102411237D01*
X113077811Y-102407936D01*
X113078961Y-102409928D01*
X113135878Y-102389623D01*
X113207204Y-102406965D01*
X113339399Y-102485145D01*
X113347010Y-102487356D01*
X113347012Y-102487357D01*
X113399153Y-102502505D01*
X113499169Y-102531562D01*
X113505574Y-102532066D01*
X113505579Y-102532067D01*
X113534042Y-102534307D01*
X113534050Y-102534307D01*
X113536498Y-102534500D01*
X113969502Y-102534500D01*
X113971950Y-102534307D01*
X113971958Y-102534307D01*
X114000421Y-102532067D01*
X114000426Y-102532066D01*
X114006831Y-102531562D01*
X114106847Y-102502505D01*
X114158988Y-102487357D01*
X114158990Y-102487356D01*
X114166601Y-102485145D01*
X114221765Y-102452521D01*
X114302980Y-102404491D01*
X114302983Y-102404489D01*
X114309807Y-102400453D01*
X114427453Y-102282807D01*
X114431489Y-102275983D01*
X114431491Y-102275980D01*
X114508108Y-102146427D01*
X114512145Y-102139601D01*
X114558562Y-101979831D01*
X114560360Y-101956994D01*
X114561307Y-101944958D01*
X114561307Y-101944950D01*
X114561500Y-101942502D01*
X114561500Y-100813843D01*
X114581502Y-100745722D01*
X114598405Y-100724748D01*
X115270404Y-100052749D01*
X115332716Y-100018723D01*
X115403531Y-100023788D01*
G37*
%TD.AperFunction*%
%TA.AperFunction,Conductor*%
G36*
X122300623Y-101716571D02*
G01*
X122308021Y-101719345D01*
X122370203Y-101726100D01*
X122460500Y-101726100D01*
X122528621Y-101746102D01*
X122575114Y-101799758D01*
X122586500Y-101852100D01*
X122586500Y-102419072D01*
X122586837Y-102422318D01*
X122586837Y-102422322D01*
X122595157Y-102502505D01*
X122597293Y-102523093D01*
X122599474Y-102529629D01*
X122599474Y-102529631D01*
X122635096Y-102636403D01*
X122652346Y-102688107D01*
X122743884Y-102836031D01*
X122749066Y-102841204D01*
X122861816Y-102953758D01*
X122861821Y-102953762D01*
X122866997Y-102958929D01*
X122873227Y-102962769D01*
X122873228Y-102962770D01*
X122975783Y-103025986D01*
X123015080Y-103050209D01*
X123022023Y-103052512D01*
X123024022Y-103053444D01*
X123077307Y-103100361D01*
X123096767Y-103168639D01*
X123088857Y-103206082D01*
X123090178Y-103206466D01*
X123087967Y-103214076D01*
X123084819Y-103221350D01*
X123083580Y-103229173D01*
X123083577Y-103229183D01*
X123077901Y-103265019D01*
X123075495Y-103276639D01*
X123072967Y-103286485D01*
X123064500Y-103319465D01*
X123064500Y-103339719D01*
X123062949Y-103359429D01*
X123059780Y-103379438D01*
X123063694Y-103420838D01*
X123063941Y-103423456D01*
X123064500Y-103435314D01*
X123064500Y-107301500D01*
X123044498Y-107369621D01*
X122990842Y-107416114D01*
X122938500Y-107427500D01*
X122425500Y-107427500D01*
X122357379Y-107407498D01*
X122310886Y-107353842D01*
X122299500Y-107301500D01*
X122299500Y-103456763D01*
X122300027Y-103445579D01*
X122301701Y-103438091D01*
X122299562Y-103370032D01*
X122299500Y-103366075D01*
X122299500Y-103338144D01*
X122298994Y-103334138D01*
X122298061Y-103322292D01*
X122297558Y-103306262D01*
X122296673Y-103278110D01*
X122291022Y-103258658D01*
X122287014Y-103239306D01*
X122285468Y-103227068D01*
X122285467Y-103227066D01*
X122284474Y-103219203D01*
X122268194Y-103178086D01*
X122264359Y-103166885D01*
X122252018Y-103124406D01*
X122247985Y-103117587D01*
X122247983Y-103117582D01*
X122241707Y-103106971D01*
X122233010Y-103089221D01*
X122225552Y-103070383D01*
X122199571Y-103034623D01*
X122193053Y-103024701D01*
X122174578Y-102993460D01*
X122174574Y-102993455D01*
X122170542Y-102986637D01*
X122156218Y-102972313D01*
X122143376Y-102957278D01*
X122140819Y-102953758D01*
X122131472Y-102940893D01*
X122097406Y-102912711D01*
X122088627Y-102904722D01*
X121330862Y-102146957D01*
X121296836Y-102084645D01*
X121301901Y-102013830D01*
X121344448Y-101956994D01*
X121368707Y-101942756D01*
X121448752Y-101907118D01*
X121488830Y-101878000D01*
X121597928Y-101798735D01*
X121668030Y-101774733D01*
X121673470Y-101774562D01*
X121677429Y-101774500D01*
X121706532Y-101774500D01*
X121710932Y-101773944D01*
X121722764Y-101773012D01*
X121768931Y-101771562D01*
X121789521Y-101765580D01*
X121808882Y-101761570D01*
X121815870Y-101760688D01*
X121822304Y-101759875D01*
X121822305Y-101759875D01*
X121830164Y-101758882D01*
X121837529Y-101755966D01*
X121837533Y-101755965D01*
X121873123Y-101741874D01*
X121884351Y-101738030D01*
X121908189Y-101731104D01*
X121943344Y-101726100D01*
X122170434Y-101726100D01*
X122173831Y-101725731D01*
X122224766Y-101720198D01*
X122224768Y-101720198D01*
X122232616Y-101719345D01*
X122240011Y-101716573D01*
X122241171Y-101716297D01*
X122299464Y-101716296D01*
X122300623Y-101716571D01*
G37*
%TD.AperFunction*%
%TA.AperFunction,Conductor*%
G36*
X114216927Y-94857502D02*
G01*
X114263420Y-94911158D01*
X114273524Y-94981432D01*
X114265601Y-95009446D01*
X114263855Y-95012399D01*
X114261645Y-95020005D01*
X114261644Y-95020008D01*
X114245303Y-95076255D01*
X114217438Y-95172169D01*
X114214500Y-95209498D01*
X114214500Y-96992502D01*
X114217438Y-97029831D01*
X114218683Y-97034117D01*
X114211323Y-97104011D01*
X114166895Y-97159389D01*
X114099581Y-97181957D01*
X114068613Y-97179294D01*
X113981946Y-97160873D01*
X113981947Y-97160873D01*
X113975487Y-97159500D01*
X113954950Y-97159500D01*
X113886829Y-97139498D01*
X113865854Y-97122595D01*
X113581735Y-96838475D01*
X113547710Y-96776163D01*
X113544831Y-96749380D01*
X113544831Y-96095730D01*
X113545390Y-96083873D01*
X113547120Y-96076133D01*
X113544893Y-96005269D01*
X113544831Y-96001311D01*
X113544831Y-95972238D01*
X113544278Y-95967859D01*
X113543345Y-95956016D01*
X113543193Y-95951162D01*
X113542315Y-95923234D01*
X113542143Y-95917759D01*
X113542143Y-95917758D01*
X113541894Y-95909839D01*
X113535910Y-95889241D01*
X113531902Y-95869888D01*
X113530885Y-95861842D01*
X113529213Y-95848606D01*
X113525564Y-95839388D01*
X113512206Y-95805652D01*
X113508360Y-95794417D01*
X113497689Y-95757686D01*
X113497688Y-95757683D01*
X113495476Y-95750070D01*
X113484556Y-95731605D01*
X113475865Y-95713865D01*
X113467966Y-95693914D01*
X113440813Y-95656541D01*
X113434298Y-95646622D01*
X113414824Y-95613693D01*
X113414821Y-95613689D01*
X113410784Y-95606863D01*
X113395620Y-95591699D01*
X113382779Y-95576665D01*
X113374832Y-95565727D01*
X113370172Y-95559313D01*
X113334578Y-95529867D01*
X113325799Y-95521878D01*
X112856516Y-95052595D01*
X112822490Y-94990283D01*
X112827555Y-94919468D01*
X112870102Y-94862632D01*
X112936622Y-94837821D01*
X112945611Y-94837500D01*
X114148806Y-94837500D01*
X114216927Y-94857502D01*
G37*
%TD.AperFunction*%
%TA.AperFunction,Conductor*%
G36*
X134243989Y-93704502D02*
G01*
X134290482Y-93758158D01*
X134300586Y-93828432D01*
X134296202Y-93847858D01*
X134243961Y-94016102D01*
X134218936Y-94227544D01*
X134232128Y-94428813D01*
X134232419Y-94433259D01*
X134216915Y-94502542D01*
X134166415Y-94552445D01*
X134106689Y-94567500D01*
X123099439Y-94567500D01*
X123031318Y-94547498D01*
X123010344Y-94530595D01*
X122991344Y-94511595D01*
X122957318Y-94449283D01*
X122962383Y-94378468D01*
X123004930Y-94321632D01*
X123071450Y-94296821D01*
X123080439Y-94296500D01*
X126339864Y-94296500D01*
X126356307Y-94297578D01*
X126388000Y-94301750D01*
X126396189Y-94300672D01*
X126427874Y-94296501D01*
X126427884Y-94296500D01*
X126427885Y-94296500D01*
X126527457Y-94283391D01*
X126538664Y-94281916D01*
X126538666Y-94281915D01*
X126546851Y-94280838D01*
X126694876Y-94219524D01*
X126790072Y-94146477D01*
X126790075Y-94146474D01*
X126821987Y-94121987D01*
X126827017Y-94115432D01*
X126841452Y-94096621D01*
X126852319Y-94084230D01*
X127215144Y-93721405D01*
X127277456Y-93687379D01*
X127304239Y-93684500D01*
X134175868Y-93684500D01*
X134243989Y-93704502D01*
G37*
%TD.AperFunction*%
%TA.AperFunction,Conductor*%
G36*
X122810467Y-91658131D02*
G01*
X122810471Y-91658131D01*
X122813866Y-91658500D01*
X123255500Y-91658500D01*
X123323621Y-91678502D01*
X123370114Y-91732158D01*
X123381500Y-91784500D01*
X123381500Y-91805241D01*
X123361498Y-91873362D01*
X123349136Y-91889551D01*
X123312075Y-91930712D01*
X123300960Y-91943056D01*
X123297659Y-91948774D01*
X123213886Y-92093873D01*
X123205473Y-92108444D01*
X123146458Y-92290072D01*
X123145768Y-92296633D01*
X123145768Y-92296635D01*
X123140998Y-92342020D01*
X123126496Y-92480000D01*
X123127186Y-92486565D01*
X123141824Y-92625834D01*
X123146458Y-92669928D01*
X123205473Y-92851556D01*
X123221410Y-92879159D01*
X123227958Y-92890501D01*
X123244695Y-92959496D01*
X123221474Y-93026588D01*
X123165667Y-93070475D01*
X123118838Y-93079500D01*
X123044572Y-93079500D01*
X122976451Y-93059498D01*
X122929958Y-93005842D01*
X122919262Y-92966670D01*
X122902232Y-92804635D01*
X122902232Y-92804633D01*
X122901542Y-92798072D01*
X122842527Y-92616444D01*
X122747040Y-92451056D01*
X122742621Y-92446148D01*
X122648864Y-92342020D01*
X122618146Y-92278013D01*
X122616500Y-92257710D01*
X122616500Y-91777489D01*
X122636502Y-91709368D01*
X122690158Y-91662875D01*
X122756107Y-91652226D01*
X122810467Y-91658131D01*
G37*
%TD.AperFunction*%
%TD*%
M02*
