M48
; DRILL file {KiCad (6.0.11)} date Thu May 16 18:38:18 2024
; FORMAT={-:-/ absolute / inch / decimal}
; #@! TF.CreationDate,2024-05-16T18:38:18+09:00
; #@! TF.GenerationSoftware,Kicad,Pcbnew,(6.0.11)
; #@! TF.FileFunction,Plated,1,2,PTH
FMAT,2
INCH
; #@! TA.AperFunction,Plated,PTH,ViaDrill
T1C0.0157
; #@! TA.AperFunction,Plated,PTH,ComponentDrill
T2C0.0256
; #@! TA.AperFunction,Plated,PTH,ComponentDrill
T3C0.0276
; #@! TA.AperFunction,Plated,PTH,ComponentDrill
T4C0.0315
%
G90
G05
T1
X3.9787Y-4.0699
X3.9895Y-4.1325
X3.99Y-3.8
X4.0Y-4.3
X4.05Y-3.86
X4.2Y-4.22
X4.22Y-3.6881
X4.22Y-3.76
X4.26Y-4.22
X4.275Y-4.325
X4.3Y-4.6
X4.3735Y-4.0536
X4.375Y-4.175
X4.4131Y-3.7913
X4.425Y-4.425
X4.4335Y-4.0009
X4.46Y-3.74
X4.4835Y-3.8609
X4.49Y-3.76
X4.5Y-4.18
X4.54Y-4.38
X4.55Y-3.525
X4.55Y-4.17
X4.55Y-4.65
X4.5635Y-4.227
X4.5735Y-3.9009
X4.5974Y-3.6409
X4.6035Y-3.7009
X4.61Y-4.26
X4.6135Y-4.1809
X4.6735Y-3.7709
X4.675Y-4.4
X4.68Y-4.11
X4.6835Y-3.8524
X4.6835Y-3.9309
X4.707Y-4.0523
X4.7135Y-3.6809
X4.7174Y-3.8724
X4.7311Y-4.3032
X4.7513Y-3.8388
X4.7598Y-4.1698
X4.76Y-4.25
X4.7635Y-3.9809
X4.8035Y-3.6609
X4.8046Y-3.8871
X4.83Y-4.22
X4.84Y-3.62
X4.84Y-4.17
X4.8435Y-3.8809
X4.85Y-4.35
X4.873Y-3.9249
X4.8735Y-3.9909
X4.8835Y-3.6409
X4.9Y-4.65
X4.9047Y-3.8609
X4.9135Y-4.245
X5.0Y-3.525
X5.0Y-4.125
X5.025Y-3.7
X5.025Y-4.35
X5.0335Y-4.0361
X5.06Y-3.92
X5.1Y-4.15
X5.1335Y-4.0361
X5.14Y-3.71
X5.15Y-3.525
X5.175Y-4.325
X5.18Y-3.82
X5.2Y-4.65
X5.2182Y-4.1934
X5.2635Y-4.3233
X5.28Y-3.86
X5.375Y-4.1
X5.5Y-3.85
X5.6Y-4.25
X5.6Y-4.65
T2
X4.3135Y-3.7806
X4.3135Y-3.8306
X4.3135Y-3.8806
X4.3135Y-3.9306
X4.3135Y-3.9806
X4.3635Y-3.7806
X4.3635Y-3.8306
X4.3635Y-3.8806
X4.3635Y-3.9306
X4.3635Y-3.9806
T3
X4.1424Y-4.0111
X4.1424Y-4.0702
X4.1424Y-4.1292
X4.1424Y-4.1883
X4.1474Y-3.6924
X4.1474Y-3.7514
X4.1474Y-3.8105
X4.1474Y-3.8695
X4.4714Y-4.516
X4.5305Y-4.516
X4.5895Y-4.516
X4.6486Y-4.516
X4.7914Y-4.516
X4.8505Y-4.516
X4.9095Y-4.516
X4.9686Y-4.516
X5.1114Y-4.516
X5.1705Y-4.516
X5.2295Y-4.516
X5.2886Y-4.516
X5.496Y-4.1514
X5.496Y-4.2105
X5.496Y-4.2695
X5.496Y-4.3286
X5.496Y-4.4714
X5.496Y-4.5305
X5.496Y-4.5895
X5.496Y-4.6486
T4
X5.33Y-3.7109
X5.33Y-4.0109
X5.43Y-3.7109
X5.43Y-4.0109
X5.53Y-3.7109
X5.53Y-4.0109
T0
M30
